<?xml version="1.0" encoding="UTF-8"?>
<!DOCTYPE svg PUBLIC "-//W3C//DTD SVG 1.1//EN" "http://www.w3.org/Graphics/SVG/1.1/DTD/svg11.dtd">
<!-- Creator: CorelDRAW -->
<svg xmlns="http://www.w3.org/2000/svg" xml:space="preserve" width="39.3701in" height="39.3701in" style="shape-rendering:geometricPrecision; text-rendering:geometricPrecision; image-rendering:optimizeQuality; fill-rule:evenodd; clip-rule:evenodd"
viewBox="0 0 39.3701 39.3701"
 xmlns:xlink="http://www.w3.org/1999/xlink">
 <defs>
  <style type="text/css">
   <![CDATA[
    .fil0 {fill:#373435}
   ]]>
  </style>
 </defs>
 <g id="Layer_x0020_1">
  <metadata id="CorelCorpID_0Corel-Layer"/>
  <path class="fil0" d="M17.058 23.4292l14.818 0c0.0984921,0 0.179067,0.0805787 0.179067,0.179071l0 3.93701e-006c0,0.0984843 -0.0805748,0.179063 -0.179067,0.179063l-14.818 0c-0.0984921,0 -0.179071,-0.0805787 -0.179071,-0.179063l0 -3.93701e-006c0,-0.0984921 0.0805787,-0.179071 0.179071,-0.179071zm6.14382 -8.55667c-0.213437,0.174854 -0.402496,0.493118 -0.483591,0.781783 -0.104689,0.372697 -0.0717835,0.750224 0.0670236,1.08479 0.21676,0.522449 0.762791,1.01127 1.52325,1.01197 1.14645,0.00106299 1.88002,-1.11198 1.59048,-2.09677 -0.115701,-0.393551 -0.235894,-0.487047 -0.483795,-0.781776 -0.0563504,0.0916969 -0.00178346,0.389807 -0.465898,0.136555 -0.846441,-0.461862 -1.35313,0.137646 -1.57924,0.101327 -0.151598,-0.0243543 -0.139146,-0.191547 -0.16824,-0.237882zm1.52095 2.87967c-0.383098,0.072315 -0.468996,0.0659134 -0.827567,0.000889764 -0.000125984,0.190823 0.0923819,0.319059 0.215531,0.383539l-1.51654 3.74587c-0.135303,0.319307 -0.235425,0.524965 -0.300366,0.616969 -0.0974173,0.135303 -0.235425,0.213776 -0.41402,0.235425l0 0.186713 1.47748 0 0 -0.186713c-0.162358,0 -0.303071,-0.0216496 -0.422134,-0.0649449 -0.119067,-0.0432953 -0.178598,-0.127185 -0.178598,-0.251661 0,-0.0487047 0.0311181,-0.156945 0.0933583,-0.32472 0.0622362,-0.167772 0.139358,-0.373425 0.231362,-0.616969l1.64796 0c0.0216496,0.054122 0.073063,0.17589 0.154244,0.365311 0.124476,0.308484 0.186713,0.511437 0.186713,0.60885 0,0.119067 -0.0378819,0.196185 -0.11365,0.231366 -0.0757677,0.0351772 -0.232717,0.0527677 -0.470846,0.0527677l0 0.186713 2.37046 0 0 -0.186713c-0.167772,0 -0.299012,-0.0649449 -0.393724,-0.194835 -0.0947087,-0.129886 -0.231362,-0.403193 -0.409961,-0.819917l-1.52373 -3.59327c0.112083,-0.066878 0.193902,-0.19139 0.194035,-0.374669zm0.636835 -2.95053c-0.320146,-0.250878 -0.690244,-0.400311 -1.131,-0.375555 -0.306122,0.0171929 -0.608154,0.115815 -0.846154,0.280217 -0.111291,0.076874 -0.152154,0.0791575 -0.109268,0.234295 0.0649488,0.234965 0.286539,0.0570787 0.486382,-0.0340157 0.414764,-0.189055 0.805496,-0.154957 1.20595,0.0512598 0.218295,0.112413 0.385201,0.205268 0.394083,-0.156201zm-1.15533 0.544299c-0.385016,0.0560354 -0.714961,0.403831 -0.649689,0.861913 0.0546339,0.383402 0.407453,0.710484 0.86024,0.648157 0.386327,-0.0531693 0.712366,-0.413827 0.650083,-0.863465 -0.0532559,-0.384504 -0.413098,-0.71174 -0.860634,-0.646606zm0.0472913 0.587764c-0.234807,0.0919961 -0.0958543,0.40502 0.116976,0.334402 0.0761693,-0.0252756 0.144823,-0.125535 0.108307,-0.228449 -0.0266772,-0.0752047 -0.117764,-0.148087 -0.225283,-0.105953zm-0.0687638 -0.793118c-0.490697,0.0636181 -0.906106,0.51498 -0.83337,1.08641 0.0625039,0.491039 0.517618,0.899913 1.08267,0.831886 0.488146,-0.0587559 0.907787,-0.516256 0.83589,-1.08131 -0.0627283,-0.492953 -0.512976,-0.911173 -1.08519,-0.836984zm-14.1083 10.257c0.562512,-0.0970669 1.97165,-0.664567 2.51176,-0.91122 0.811051,-0.370374 1.53042,-0.745035 2.27889,-1.18146 0.179492,-0.104654 0.35065,-0.228118 0.525382,-0.324102 1.15361,-0.633665 2.47377,-1.64912 3.46523,-2.53057 -0.0507441,0.0154528 -0.987327,1.14291 -1.04968,1.21437 -0.637736,0.731102 -1.98565,1.97372 -2.77652,2.45344 -0.422213,0.256098 -0.652669,0.405268 -1.10184,0.650256 0.271083,-0.0219173 1.44121,-0.566992 1.77732,-0.758028 1.11068,-0.63124 2.01665,-1.31926 2.88776,-2.23802 0.426244,-0.449555 0.79972,-0.849366 1.19397,-1.38506 0.905638,-1.2305 1.24194,-1.84189 1.94072,-3.18172 0.632165,-1.21211 1.00563,-2.3835 1.45772,-3.66871 -0.0757008,0.0649055 -0.416433,0.58374 -0.501512,0.71965 -0.415732,0.664047 -1.05713,1.56022 -1.51167,2.15432 -0.956441,1.25007 -1.15391,1.44228 -2.26398,2.63737l-0.888165 -1.40357 -1.60861 0.013122 1.46501 2.4507c-0.122937,0.0717008 -0.313094,0.257134 -0.423976,0.354079 -0.15226,0.133114 -0.276531,0.232815 -0.447441,0.366268 -1.5719,1.22725 -2.99557,2.26593 -4.85729,3.11824 -0.677201,0.310024 -1.54894,0.668732 -2.33314,0.832417 -0.281039,0.0252244 -0.561717,0.107815 -0.857177,0.149909 -0.303228,0.0431929 -0.653988,0.0541929 -0.971102,0.0499685 -0.572283,-0.00759843 -1.23204,-0.173756 -1.45277,-0.579736 -0.299803,-0.551413 0.161512,-1.15834 0.410008,-1.44885 0.395563,-0.462465 0.92152,-1.0448 1.10419,-1.3131l0 0.585835c0,0.211067 -0.0568228,0.349075 -0.170476,0.41402 -0.0703583,0.0432992 -0.230016,0.0757717 -0.478965,0.0974173l0 0.186717 4.28632 0 0.30037 -1.52619 -0.211071 0c-0.211067,0.508728 -0.50061,0.865921 -0.86863,1.07158 -0.270598,0.151535 -0.625087,0.227307 -1.06346,0.227307 -0.238126,0 -0.399138,-0.0284173 -0.483024,-0.0852441 -0.0838819,-0.0568268 -0.125827,-0.166417 -0.125827,-0.32878l0 -1.76973c0.384252,0 0.667031,0.0798268 0.848335,0.23948 0.181307,0.159654 0.296311,0.458669 0.34502,0.897043l0.178594 0 0 -2.476 -0.178594 0c-0.0595354,0.432965 -0.186717,0.727917 -0.381551,0.884866 -0.167776,0.135299 -0.438374,0.202953 -0.811803,0.202953l0 -1.69667c0,-0.156953 0.0338268,-0.253016 0.101476,-0.288197 0.0676496,-0.0351772 0.212421,-0.0527638 0.434315,-0.0527638 0.535787,0 0.917657,0.0725748 1.14464,0.219185 0.475303,0.306996 0.416976,0.755067 0.578035,0.922988 0.0368268,0.156319 0.466004,0.413512 0.547343,0.452122 0.206378,0.0979724 0.457193,0.208756 0.739717,0.227913l0.00753937 -0.0966024c-0.215492,0.00207874 -0.596693,-0.156012 -0.736106,-0.232921 -0.106047,-0.0585039 -0.297878,-0.182346 -0.39815,-0.284016 0.00497638,0.000200787 0.00999606,0.000366142 0.015185,0.000366142l-0.0391732 -1.4607 -4.2295 0 0 0.186717c0.211067,0 0.362606,0.0270591 0.45461,0.0811811 0.12989,0.0757677 0.194831,0.22189 0.194831,0.438374l0 2.82757c-0.173571,0.0767047 -0.711976,0.487331 -1.86902,1.46436 -1.18604,1.00148 -0.802555,2.87706 1.50337,2.86532 0.487602,-0.00247244 2.06079,-0.266563 2.39255,-0.435461zm8.98681 -3.50644l0.736189 1.23104 1.76861 -0.00594882c-0.0950669,-0.226587 -1.3381,-2.04861 -1.56379,-2.3707 -0.2365,0.352398 -0.659311,0.82948 -0.941008,1.14561zm4.13091 -0.698744l1.43148 0 -0.73874 -1.77785 -0.692736 1.77785zm10.6536 1.54243l0 0.186713 -2.42729 0 0 -0.186713c0.211071,-0.0216496 0.343665,-0.0405906 0.397783,-0.0568268 0.167772,-0.054122 0.251657,-0.21648 0.251657,-0.487083l0 -3.6937 -1.84279 4.42432 -0.202953 0 -1.82655 -4.31878 -0.0162362 3.40957c0,0.270598 0.0500591,0.458665 0.150181,0.564201 0.100122,0.105535 0.296311,0.158303 0.588559,0.158303l0 0.186713 -1.72102 0 0 -0.186713c0.281425,0 0.464079,-0.0419449 0.547965,-0.125831 0.0838858,-0.0838858 0.125831,-0.236776 0.125831,-0.458669l0 -3.47451c0,-0.189421 -0.0473543,-0.32337 -0.142067,-0.401843 -0.0933583,-0.0784764 -0.270598,-0.117713 -0.531728,-0.117713l0 -0.186713 1.8685 0 1.47748 3.46233 1.45989 -3.46233 1.84279 0 0 0.186713c-0.23813,0 -0.397783,0.0324724 -0.478961,0.0974173 -0.113654,0.0920039 -0.17048,0.28413 -0.17048,0.576378l0 3.23909c0,0.270598 0.0460039,0.446488 0.138008,0.527669 0.0703543,0.0595315 0.240835,0.105535 0.511433,0.138008zm-19.9085 -1.06231c0.0361732,0.131776 0.115709,0.591732 0.106882,0.717028 -0.0433976,0.616244 -0.75165,0.975378 -1.29163,0.53772 -0.16574,-0.134331 -0.229622,-0.32487 -0.266264,-0.533106 -0.0215,-0.122197 -0.0422126,-0.244878 -0.0646535,-0.36687 -0.0180866,-0.0983465 -0.060252,-0.0809961 0.196256,-0.187902 0.211937,-0.0883307 0.442354,-0.142697 0.675453,-0.174303 0.134965,-0.0183031 0.538665,-0.033622 0.643953,0.00743307zm-0.0135433 -0.0856811c-0.113591,-0.00138583 -0.23,-0.0211378 -0.354421,-0.0189961l-0.389551 0.0336535 -0.0205827 -0.110382c0.0700118,-0.0509646 0.0342283,-0.132358 0.0155551,-0.238362 -0.00765748,-0.0434606 -0.0145433,-0.10213 -0.0254843,-0.143165l-0.0704331 -0.0774016 -0.0273504 -0.175343c0.262988,-0.0551299 0.410776,-0.0659843 0.62287,0.0927047 0.0606811,0.0454016 0.136902,0.143622 0.172315,0.244858 0.0350787,0.100268 0.0602717,0.281811 0.0770827,0.392433zm-0.926854 -0.540217c-0.067752,0.0844213 -0.0360472,0.12648 -0.00720079,0.291488 0.00885433,0.0506339 0.0107362,0.116228 0.0486496,0.14572l0.0572677 0.134071c-0.129965,0.0222283 -0.259583,0.0598465 -0.381902,0.102031 -0.118827,0.0409764 -0.209709,0.0835039 -0.322795,0.133594 -0.0451457,-0.269406 -0.112268,-0.464244 0.0130433,-0.672673 0.0432283,-0.0718937 0.0998228,-0.14798 0.197909,-0.205571l0.364469 -0.105685 0.0305591 0.177024zm-0.0962283 -0.98628c-0.000637795,0.223665 0.0106929,0.40352 0.103831,0.617346 0.0502165,0.115287 -0.0346417,0.123933 -0.0657835,0.0839213 -0.0464291,-0.0596614 -0.105224,-0.309744 -0.117913,-0.396358 -0.0359331,-0.245311 -0.0431772,-0.757402 0.278843,-0.801811 0.278087,-0.0383465 0.34085,0.359492 0.0206969,0.466425 -0.090937,0.030374 -0.141512,0.0157402 -0.219673,0.0304764zm0.012622 -0.0975787c0.0160551,-0.247319 0.182417,-0.361717 0.285484,-0.287583 0.0782874,0.056311 0.032248,0.169693 -0.0155945,0.211764 -0.0739134,0.0649961 -0.167807,0.0684173 -0.26989,0.0758189zm5.93541 4.10431l14.818 0c0.0984921,0 0.179071,0.0805748 0.179071,0.179067l0 3.93701e-006c0,0.0984882 -0.0805787,0.179063 -0.179071,0.179063l-14.818 0c-0.0984921,0 -0.179067,-0.0805748 -0.179067,-0.179063l0 -3.93701e-006c0,-0.0984921 0.0805748,-0.179067 0.179067,-0.179067zm-4.72307 -4.14728l1.61164 0c0.104646,0 0.190256,0.0856142 0.190256,0.19026l0 3.93701e-006c0,0.104646 -0.0856102,0.19026 -0.190256,0.19026l-1.61164 0c-0.104646,0 -0.19026,-0.0856142 -0.19026,-0.19026l0 -3.93701e-006c0,-0.104646 0.0856142,-0.19026 0.19026,-0.19026z"/>
 </g>
</svg>
