<?xml version="1.0" encoding="utf-8"?>
<!-- Generator: Adobe Illustrator 24.3.0, SVG Export Plug-In . SVG Version: 6.00 Build 0)  -->
<svg version="1.1" id="Layer_1" xmlns="http://www.w3.org/2000/svg" xmlns:xlink="http://www.w3.org/1999/xlink" x="0px" y="0px"
	 viewBox="0 0 600 500" style="enable-background:new 0 0 600 500;" xml:space="preserve">
<style type="text/css">
	.st0{fill:none;stroke:#263239;stroke-linecap:round;stroke-linejoin:round;}
	.st1{fill:none;stroke:#263239;stroke-linecap:round;stroke-linejoin:round;stroke-dasharray:3.1298,3.1298;}
	.st2{fill:none;stroke:#263239;stroke-linecap:round;stroke-linejoin:round;stroke-dasharray:2.9704,2.9704;}
	.st3{fill:none;stroke:#263239;stroke-linecap:round;stroke-linejoin:round;stroke-dasharray:3.1506,3.1506;}
	.st4{fill:none;stroke:#263239;stroke-linecap:round;stroke-linejoin:round;stroke-dasharray:3.1372,3.1372;}
	.st5{fill:none;stroke:#263239;stroke-linecap:round;stroke-linejoin:round;stroke-dasharray:3.0232,3.0232;}
	.st6{fill:#F0AE08;}
	.st7{fill:#FFFFFF;stroke:#263239;stroke-linecap:round;stroke-linejoin:round;stroke-miterlimit:10;}
	.st8{fill:none;stroke:#263239;stroke-linecap:round;stroke-linejoin:round;stroke-miterlimit:10;}
	.st9{fill:#263239;}
	.st10{fill:#263239;stroke:#263239;stroke-linecap:round;stroke-linejoin:round;stroke-miterlimit:10;}
	.st11{fill:none;stroke:#FFFFFF;stroke-linecap:round;stroke-linejoin:round;stroke-miterlimit:10;}
	.st12{fill:#3564AD;}
	.st13{fill:#FFFFFF;}
</style>
<g>
	<g>
		<g>
			<line class="st0" x1="473.02" y1="191.87" x2="473.02" y2="193.37"/>
			<line class="st1" x1="473.02" y1="196.5" x2="473.02" y2="207.45"/>
			<polyline class="st0" points="473.02,209.02 473.02,210.52 471.52,210.52 			"/>
			<line class="st2" x1="468.55" y1="210.52" x2="398.75" y2="210.52"/>
			<polyline class="st0" points="397.26,210.52 395.76,210.52 395.76,212.02 			"/>
			<line class="st3" x1="395.76" y1="215.17" x2="395.76" y2="251.4"/>
			<line class="st0" x1="395.76" y1="252.98" x2="395.76" y2="254.48"/>
		</g>
	</g>
	<g>
		<g>
			<line class="st0" x1="145.33" y1="194.53" x2="145.33" y2="196.03"/>
			<line class="st4" x1="145.33" y1="199.17" x2="145.33" y2="254.07"/>
			<polyline class="st0" points="145.33,255.64 145.33,257.14 146.83,257.14 			"/>
			<line class="st5" x1="149.86" y1="257.14" x2="299.51" y2="257.14"/>
			<line class="st0" x1="301.02" y1="257.14" x2="302.52" y2="257.14"/>
		</g>
	</g>
</g>
<rect x="60.08" y="18.7" class="st6" width="290.39" height="187.82"/>
<path class="st6" d="M538.29,42.68c-28.73,0-52.1,23.37-52.1,52.1s23.37,52.1,52.1,52.1s52.1-23.37,52.1-52.1
	S567.02,42.68,538.29,42.68z M587.58,93.38h-22.75c-0.12-9.05-1.39-17.72-3.69-25.31c4.32-2.11,8.37-4.84,12.02-8.12
	C581.77,68.57,587.22,80.35,587.58,93.38z M538.29,144.09c-6.16,0-12.04-5-16.54-14.08c-1.08-2.17-2.04-4.52-2.89-7
	c6.07-2.6,12.66-3.97,19.43-3.97c6.77,0,13.35,1.37,19.43,3.97c-0.85,2.48-1.81,4.83-2.89,7
	C550.33,139.09,544.45,144.09,538.29,144.09z M538.29,116.24c-7.06,0-13.94,1.41-20.29,4.1c-2.15-7.25-3.34-15.51-3.46-24.16h47.49
	c-0.12,8.65-1.31,16.92-3.46,24.16C552.23,117.66,545.35,116.24,538.29,116.24z M514.55,93.38c0.12-8.64,1.31-16.9,3.45-24.14
	c6.35,2.69,13.23,4.1,20.29,4.1c7.06,0,13.94-1.41,20.29-4.1c2.15,7.24,3.34,15.5,3.45,24.14H514.55z M538.29,45.47
	c6.16,0,12.04,5,16.54,14.08c1.08,2.18,2.05,4.53,2.9,7.02c-6.07,2.61-12.66,3.98-19.43,3.98c-6.77,0-13.36-1.37-19.43-3.98
	c0.85-2.49,1.81-4.84,2.9-7.02C526.26,50.47,532.13,45.47,538.29,45.47z M571.12,58.03c-3.31,2.96-6.96,5.42-10.85,7.36
	c-0.87-2.5-1.84-4.88-2.94-7.08c-2.56-5.16-5.59-9.14-8.91-11.78C557.02,48.32,564.8,52.37,571.12,58.03z M519.25,58.31
	c-1.09,2.21-2.07,4.58-2.94,7.08c-3.89-1.94-7.54-4.41-10.85-7.36c6.32-5.65,14.1-9.7,22.7-11.5
	C524.84,49.17,521.81,53.14,519.25,58.31z M503.42,59.95c3.65,3.29,7.69,6.01,12.02,8.12c-2.29,7.59-3.57,16.26-3.69,25.31H489
	C489.37,80.35,494.81,68.57,503.42,59.95z M489,96.18h22.75c0.12,9.06,1.39,17.73,3.69,25.33c-4.32,2.11-8.37,4.83-12.01,8.12
	C494.82,121,489.37,109.21,489,96.18z M505.47,131.55c3.31-2.95,6.95-5.42,10.85-7.35c0.86,2.5,1.84,4.86,2.93,7.06
	c2.56,5.16,5.59,9.14,8.91,11.78C519.57,141.24,511.79,137.19,505.47,131.55z M557.33,131.26c1.09-2.2,2.07-4.57,2.93-7.06
	c3.89,1.94,7.54,4.4,10.85,7.35c-6.32,5.65-14.09,9.69-22.68,11.49C551.75,140.39,554.77,136.42,557.33,131.26z M573.15,129.62
	c-3.65-3.28-7.69-6-12.01-8.12c2.3-7.6,3.57-16.27,3.69-25.33h22.75C587.22,109.21,581.77,121,573.15,129.62z"/>
<g>
	<rect x="73.71" y="10.71" class="st7" width="287.18" height="183.8"/>
	<rect x="106.94" y="19.67" class="st7" width="236.05" height="122.43"/>
	<g>
		<line class="st8" x1="267.44" y1="39.26" x2="303.05" y2="39.26"/>
		<line class="st8" x1="248.19" y1="39.26" x2="263.54" y2="39.26"/>
		<line class="st8" x1="290.29" y1="47.3" x2="303.05" y2="47.3"/>
		<line class="st8" x1="248.19" y1="47.3" x2="285.36" y2="47.3"/>
		<line class="st8" x1="296.52" y1="55.34" x2="303.05" y2="55.34"/>
		<line class="st8" x1="266.4" y1="55.34" x2="290.55" y2="55.34"/>
		<line class="st8" x1="248.19" y1="55.34" x2="263.54" y2="55.34"/>
		<line class="st8" x1="262.77" y1="63.38" x2="303.05" y2="63.38"/>
		<line class="st8" x1="248.19" y1="63.38" x2="259.13" y2="63.38"/>
	</g>
	<g>
		<line class="st8" x1="299.12" y1="90.19" x2="303.05" y2="90.19"/>
		<line class="st8" x1="248.19" y1="90.19" x2="295.48" y2="90.19"/>
		<line class="st8" x1="279.12" y1="98.23" x2="303.05" y2="98.23"/>
		<line class="st8" x1="248.19" y1="98.23" x2="273.93" y2="98.23"/>
		<line class="st8" x1="269.52" y1="106.27" x2="303.05" y2="106.27"/>
		<line class="st8" x1="248.19" y1="106.27" x2="263.54" y2="106.27"/>
		<line class="st8" x1="285.87" y1="114.31" x2="303.05" y2="114.31"/>
		<line class="st8" x1="260.95" y1="114.31" x2="280.68" y2="114.31"/>
		<line class="st8" x1="248.19" y1="114.31" x2="258.09" y2="114.31"/>
	</g>
	<g>
		<path class="st9" d="M175.94,45.37c0,0,1.66,0.9,3.76-2.41s3.01-10.24,0-15.66c-3.01-5.42-10.24-5.27-14.15-5.12
			c-3.91,0.15-6.17-4.52-16.26,0.15C139.2,27.01,138,33.93,137.55,39.8c-0.45,5.87,3.01,11.29,1.05,14.6s-11.59,4.52-13.55,11.74
			c-1.96,7.23,2.41,11.29,2.26,13.1c-0.15,1.81-2.41,4.52-6.47,6.62c-4.06,2.11-7.53,13.7,1.2,20.02
			c8.73,6.32,19.12,7.08,30.86,0.75c11.74-6.32,19.87-18.07,20.78-24.54c0.9-6.47-1.66-8.28,1.96-10.84
			c3.61-2.56,7.98-7.08,5.72-12.5c-2.26-5.42-6.02-9.48-6.02-10.84S175.94,45.37,175.94,45.37z"/>
		<path class="st9" d="M136.53,136.29c0,0-5.22,7.73-6.06,21.72c-0.84,13.99,4.59,33,4.59,33h49.71c0,0,3.76-19.63,2.3-32.16
			c-1.46-12.53-4.18-17.96-4.18-17.96l-3.97-8.98l-41.14,1.04L136.53,136.29z"/>
		<path class="st7" d="M152.9,55.91c0,0-0.15,14.75-0.75,16.56c-0.6,1.81-3.31,4.52-10.99,7.83c0,0,4.97,31.47,5.87,40.8
			c0.9,9.33,0.9,15.51,0.9,15.51s11.14,1.66,16.56,1.35c5.42-0.3,11.89-3.61,11.89-3.61l-1.96-55.7L166,73.68l-0.45-9.79
			c0,0-9.18-8.73-10.24-9.33C154.26,53.95,152.9,55.91,152.9,55.91z"/>
		<path class="st10" d="M156.17,59.23c0,0,6.47,10.44,9.82,13.58l-0.43-8.91l-8.97-7.17L156.17,59.23z"/>
		<path class="st7" d="M174.74,87.39l-32.19,1.83c1.54,10.04,3.89,25.74,4.49,31.88c0.9,9.33,0.9,15.51,0.9,15.51
			s11.14,1.66,16.56,1.35c5.42-0.3,11.89-3.61,11.89-3.61L174.74,87.39z"/>
		<g>
			<path class="st7" d="M170.81,34.89c0,0-8.7,11.87-17.93,14.77l-2.37,0.26c0,0-2.64-3.69-3.96-0.26c-1.32,3.43,1.32,7.38,2.9,8.17
				c1.58,0.79,3.16-0.26,3.16-0.26l1.05-1.05c0,0,5.27,6.07,8.97,8.17c3.69,2.11,5.27,3.69,7.12,1.85c1.85-1.85,5.01-6.59,5.8-11.87
				c0.79-5.27,0.79-13.45,0.79-13.45S171.6,34.89,170.81,34.89z"/>
			<path class="st8" d="M170.81,43.59c0,0-0.26,5.01,1.32,6.07c1.58,1.05,1.58,2.9,0.53,3.16c-1.05,0.26-2.37,0-2.37,0"/>
			<path class="st8" d="M164.22,54.67c0,0,2.37,2.64,6.86,1.32"/>
			<path class="st9" d="M164.95,46.58c0,0.91-0.34,1.66-0.75,1.66c-0.42,0-0.75-0.74-0.75-1.66c0-0.91,0.34-1.66,0.75-1.66
				C164.61,44.92,164.95,45.66,164.95,46.58z"/>
			<path class="st9" d="M174.88,45.82c0,0.91-0.34,1.66-0.75,1.66c-0.42,0-0.75-0.74-0.75-1.66c0-0.91,0.34-1.66,0.75-1.66
				C174.55,44.17,174.88,44.91,174.88,45.82z"/>
		</g>
		<g>
			<path class="st7" d="M113.46,162.52c0,0-1.02,6.01-1.36,7.37c-0.34,1.36,1.36,7.83,1.36,7.83s4.2,2.72,4.99,2.84
				c0.79,0.11,2.16-0.34,2.04-1.36c-0.11-1.02-1.7-1.02-1.7-1.02l-1.59-2.27l0.34-1.36c0,0,0.79,2.72,1.36,1.25
				c0.57-1.47,0.34-2.27,0.91-4.65c0.57-2.38-0.11-4.42-0.57-5.79c-0.45-1.36-1.02-2.95-1.02-2.95l0.57-2.61l-5.11-0.91
				L113.46,162.52z"/>
			<line class="st7" x1="117.55" y1="174.55" x2="117.89" y2="170.35"/>
		</g>
		<path class="st7" d="M147.81,76.56c0,0,6.68,57.64,5.85,75.6c0,0-14.62-0.63-24.23-2.72c0,0,10.86-28.82,11.07-31.95
			s-2.51-7.94-2.51-7.94l-17.75,52.21l-7.1-2.09l18.38-73.93L147.81,76.56z"/>
		<g>
			<path class="st7" d="M219.32,93.31l2.5-1.82c0,0,3.06-0.91,4.08-2.16c1.02-1.25,1.13-1.59,1.13-1.59s2.61-0.23,3.63-2.04
				c1.02-1.82,0.79-6.92,0.79-6.92s1.59-2.04,1.47-3.18c-0.11-1.13-1.25-1.47-2.5-0.57c-1.25,0.91-1.93,1.36-1.93,1.36l-6.81,6.81
				l-2.27,1.82c0,0-0.57,2.16-1.25,3.29c-0.68,1.13-2.27,3.29-2.27,3.29L219.32,93.31z"/>
			<path class="st7" d="M216.31,90.56l2.55-3.94c0,0,1.59-4.31,1.93-4.99c0.34-0.68,4.2-4.08,4.54-4.42
				c0.34-0.34,2.04-3.74,2.84-4.08c0.79-0.34,1.25,1.02,1.25,2.38s-2.95,5.67-2.95,5.67s-0.23,3.97-1.47,5.79
				c-1.25,1.82-3.86,2.5-3.86,2.5"/>
			<line class="st8" x1="238.38" y1="53.26" x2="224.2" y2="90.7"/>
			<path class="st8" d="M227.03,87.75c0,0-1.13,0.91-0.34-3.4"/>
			<path class="st8" d="M231.46,78.79c0,0-1.82,1.59-2.5,0.79"/>
		</g>
		<path class="st7" d="M169.32,75.94c0,0,3.76,46.57,3.76,58.69c0,12.11,0.21,16.92,0.21,16.92s2.09-0.84,5.85-1.46
			c3.76-0.63,8.77-2.72,8.77-2.72s-10.02-27.57-10.02-29.45c0-1.88,1.25-9.61,1.25-9.61s18.17,14.83,20.26,13.99
			c2.09-0.84,20.68-29.03,20.68-29.03l-3.76-2.72l-20.26,15.45c0,0-13.58-25.48-14.41-25.9C180.81,79.7,169.32,75.94,169.32,75.94z"
			/>
		<polygon class="st10" points="179.14,108.31 181.44,96.19 183.52,111.44 		"/>
		<line class="st8" x1="138" y1="109.56" x2="133.61" y2="100.16"/>
	</g>
	<rect x="73.71" y="174.04" class="st10" width="287.18" height="20.47"/>
	<rect x="73.71" y="181.29" class="st7" width="287.18" height="5.97"/>
</g>
<g>
	<g>
		<polygon class="st10" points="402.35,494.55 390.63,374.77 381.48,376.77 398.04,494.55 		"/>
		<polygon class="st10" points="266.92,494.55 283.48,376.77 274.33,374.77 262.61,494.55 		"/>
		<path class="st10" d="M277.04,389.23l-5.88-140.07c-0.35-8.34,6.32-15.3,14.67-15.3h98.14c8.56,0,15.3,7.29,14.64,15.82
			l-10.86,139.55H277.04z"/>
		<rect x="266.79" y="358.53" class="st7" width="130.25" height="30.7"/>
		<path class="st10" d="M277.04,389.23h-9.86l-6.9-57.67c0-4.63,3.75-8.38,8.38-8.38l0,0c4.63,0,8.38,3.75,8.38,8.38V389.23z"/>
		<path class="st10" d="M387.73,389.23h9.86l6.9-57.67c0-4.63-3.75-8.38-8.38-8.38l0,0c-4.63,0-8.38,3.75-8.38,8.38V389.23z"/>
	</g>
	<g>
		<polygon class="st7" points="290.05,280.74 294.7,328.19 368.2,328.19 372.85,280.74 		"/>
		<g>
			<path class="st7" d="M319.93,203.03l-39.21,21.99l-21.25,64.86h153.18c0,0-24.55-63.03-29.32-66.33
				c-4.76-3.3-42.51-20.89-42.51-20.89L319.93,203.03z"/>
			<path class="st7" d="M318.47,197.53c0,0-3.3,2.57-4.03,5.13c-0.73,2.57-3.3,23.45-3.3,23.45s13.93-9.16,17.96-9.89
				c4.03-0.73,23.82,11.36,23.82,11.36s-4.76-23.82-8.43-28.95C340.82,193.5,324.7,191.67,318.47,197.53z"/>
			<path class="st7" d="M320.67,205.96c0,0,9.89,33.35,10.63,29.68c0.73-3.66,9.53-28.58,9.53-28.58S324.33,208.52,320.67,205.96z"
				/>
			<g>
				<path class="st7" d="M313.05,182.87c0,0,2.33,12.84,4.28,17.9c1.95,5.06,8.95,15.57,14.4,14.4c5.45-1.17,14.4-12.45,15.57-16.73
					c1.17-4.28,2.72-22.18,2.72-26.07c0-3.89-3.89-9.73-15.95-6.23C322,169.64,313.44,175.09,313.05,182.87z"/>
				<path class="st10" d="M320.67,205.96c0,0,3.93-6.15,12.04-4.72c8.11,1.42,10.36,4.31,10.36,4.31s-4.6,10.07-11.22,11.22
					C325.23,217.92,320.42,208.67,320.67,205.96z"/>
				<path class="st11" d="M326.09,205.84c0,0,3.74,2.01,10.64,0"/>
				<path class="st9" d="M323.78,190.37c0,1.47-0.59,2.66-1.33,2.66c-0.73,0-1.33-1.19-1.33-2.66c0-1.47,0.59-2.66,1.33-2.66
					C323.19,187.71,323.78,188.9,323.78,190.37z"/>
				<path class="st9" d="M339.84,190.37c0,1.47-0.59,2.66-1.33,2.66c-0.73,0-1.33-1.19-1.33-2.66c0-1.47,0.59-2.66,1.33-2.66
					C339.25,187.71,339.84,188.9,339.84,190.37z"/>
				<polyline class="st7" points="333.93,189.64 334.24,199.64 329.5,199.64 				"/>
				<path class="st7" d="M334.89,185.78c0,0,3.86-2.42,7.25-0.24"/>
				<path class="st7" d="M328.85,186.02c0,0-3.86-3.14-9.9-0.72"/>
			</g>
			<path class="st8" d="M303.46,172.06l2.07-17.29c1.04-8.65,6.59-16.09,14.58-19.56l0,0c5.89-2.55,12.54-2.7,18.53-0.4l0.25,0.1
				c9.31,3.57,15.53,12.42,15.73,22.39l0.28,13.95"/>
			<path class="st7" d="M309.09,187.68L309.09,187.68c-2.24,0.52-4.48-0.88-5-3.12l-1.88-8.12c-0.52-2.24,0.88-4.48,3.12-5l0,0
				c2.24-0.52,4.48,0.88,5,3.12l1.88,8.12C312.73,184.92,311.34,187.16,309.09,187.68z"/>
			<path class="st7" d="M353.69,187.87L353.69,187.87c-2.3-0.17-4.02-2.17-3.85-4.46l0.61-8.31c0.17-2.3,2.17-4.02,4.46-3.85l0,0
				c2.3,0.17,4.02,2.17,3.85,4.46l-0.61,8.31C357.98,186.32,355.98,188.04,353.69,187.87z"/>
			<path class="st10" d="M342.63,170.03c0,0-5.84,5.45-15.57,12.06c-9.73,6.62-18.29,3.89-17.9,1.95c0.39-1.95,1.95-4.67,1.95-4.67
				s-3.5,1.17-4.28-5.45c-0.78-6.62-2.33-21.4,5.06-27.24c7.39-5.84,24.13-8.17,31.52-5.84c7.39,2.33,10.51,13.23,10.51,18.29
				c0,5.06-1.56,15.18-1.56,15.18s1.56,2.33-2.72,4.28c-4.28,1.95-7.39,0-6.62-3.5C343.79,171.59,342.63,170.03,342.63,170.03z"/>
			<path class="st7" d="M266.07,272.29c0,0,4.4-1.83,12.09,1.1c7.7,2.93,23.09,7.33,25.29,7.33s14.66,1.1,14.66,1.1l0.37,8.06
				c0,0-55.7,1.1-59,0C256.17,288.78,257.27,278.15,266.07,272.29z"/>
			<path class="st7" d="M305.18,285.36c0,0,9.78-8.42,12.76-10.32c2.99-1.9,11.41,11.41,11.68,12.49c0.27,1.09-2.17,1.63-2.17,1.63
				s-6.52-1.36-7.88-1.63c-1.36-0.27-2.72,1.09-6.25,1.09c-3.53,0-9.78,0-9.78,0"/>
			<path class="st7" d="M407.64,272.29c0,0-4.4-1.83-12.09,1.1c-7.7,2.93-23.09,7.33-25.29,7.33c-2.2,0-14.66,1.1-14.66,1.1
				l-0.37,8.06c0,0,55.7,1.1,59,0C417.53,288.78,416.43,278.15,407.64,272.29z"/>
			<path class="st7" d="M365.23,285.36c0,0-9.78-8.42-12.76-10.32c-2.99-1.9-11.41,11.41-11.68,12.49
				c-0.27,1.09,2.17,1.63,2.17,1.63s6.52-1.36,7.88-1.63c1.36-0.27,2.72,1.09,6.25,1.09c3.53,0,9.78,0,9.78,0"/>
		</g>
		<rect x="294.7" y="328.19" class="st7" width="70.71" height="30.7"/>
		<path class="st8" d="M301.21,326.33c0,0,20.47,5.58,24.19,20.47"/>
		<path class="st8" d="M360.75,328.19c0,0-16.75-0.93-22.33,17.68"/>
	</g>
	<g>
		<path class="st7" d="M309.1,345.83c0.71-11.24-6.86-21.71-17.96-23.59c-3.36-0.57-6.9-0.33-10.39,1.29
			c-13.96,6.51-0.33,158.75-0.33,158.75h11.16C291.58,482.29,306.18,392.26,309.1,345.83z"/>
		<polygon class="st7" points="279.19,473.21 275.89,487.34 264.79,494.4 293.05,494.4 293.52,473.21 		"/>
		<path class="st7" d="M275.89,487.34c0,0,7.07-4.54,12.11,0"/>
	</g>
	<g>
		<path class="st7" d="M355.67,345.83c-0.71-11.24,6.86-21.71,17.96-23.59c3.36-0.57,6.9-0.33,10.39,1.29
			c13.96,6.51,0.33,158.75,0.33,158.75H373.2C373.2,482.29,358.59,392.26,355.67,345.83z"/>
		<polygon class="st7" points="385.58,473.21 388.88,487.34 399.98,494.4 371.72,494.4 371.25,473.21 		"/>
		<path class="st7" d="M388.88,487.34c0,0-7.07-4.54-12.11,0"/>
	</g>
</g>
<path class="st12" d="M377.78,290.4h-91.21v-51.67c0-1.38,1.12-2.5,2.5-2.5h86.21c1.38,0,2.5,1.12,2.5,2.5V290.4z"/>
<g>
	<g>
		<path class="st8" d="M420.47,236.68c0.48-0.64,1.03-1.19,1.57-1.62"/>
		<path class="st8" d="M424.95,255.38c0,0,4.07-4.27-2.32-8.34c-3.87-2.47-4.33-5.5-3.45-8.02"/>
		<path class="st8" d="M431.76,245.96c0,0,4.95,2.32,3.4,9.28"/>
	</g>
	<rect x="422.08" y="258.73" class="st7" width="20.84" height="30.79"/>
	<g>
		<path class="st7" d="M441.99,285.32h-2.18c-0.95,0-1.72-0.77-1.72-1.72c0-0.95,0.77-1.72,1.72-1.72h2.18
			c1.8,0,3.26-1.46,3.26-3.26v-7.46c0-1.8-1.46-3.26-3.26-3.26h-2.8c-0.95,0-1.72-0.77-1.72-1.72c0-0.95,0.77-1.72,1.72-1.72h2.8
			c3.69,0,6.69,3,6.69,6.69v7.46C448.68,282.32,445.68,285.32,441.99,285.32z"/>
	</g>
</g>
<rect x="191.37" y="263.53" class="st7" width="18.52" height="26.35"/>
<g>
	<g>
		<polygon class="st7" points="496.82,494.55 485.98,305.6 476.73,305.6 492.61,494.55 		"/>
		<polygon class="st7" points="530.87,494.55 520.03,305.6 510.76,305.6 526.64,494.55 		"/>
		<polygon class="st7" points="177.8,494.55 191.3,305.6 182.07,305.6 173.61,494.55 		"/>
		<polygon class="st7" points="139.7,494.55 153.21,305.6 143.99,305.6 135.54,494.55 		"/>
	</g>
	<g>
		<rect x="137.95" y="294.94" class="st7" width="393.94" height="16.53"/>
		<rect x="137.95" y="294.94" class="st10" width="393.94" height="5.67"/>
		<rect x="132.82" y="289.44" class="st7" width="404.21" height="6.3"/>
	</g>
</g>
<g>
	<rect x="383.92" y="10.71" class="st7" width="118.35" height="75.74"/>
	<rect x="383.92" y="78.02" class="st10" width="118.35" height="8.44"/>
	<rect x="383.92" y="81.01" class="st7" width="118.35" height="2.46"/>
	<g>
		<path class="st12" d="M458.47,48.21c0-9.63-7.8-17.43-17.43-17.43c-9.63,0-17.43,7.8-17.43,17.43s7.8,17.43,17.43,17.43
			C450.67,65.64,458.47,57.84,458.47,48.21z"/>
		<polygon class="st13" points="451.14,48.59 435.98,39.84 435.98,57.35 		"/>
	</g>
</g>
<g>
	<rect x="383.92" y="110.41" class="st7" width="118.35" height="75.74"/>
	<rect x="383.92" y="177.72" class="st10" width="118.35" height="8.44"/>
	<rect x="383.92" y="180.7" class="st7" width="118.35" height="2.46"/>
	<g>
		<path class="st12" d="M458.47,147.91c0-9.62-7.8-17.43-17.43-17.43c-9.63,0-17.43,7.8-17.43,17.43c0,9.63,7.8,17.43,17.43,17.43
			C450.67,165.34,458.47,157.54,458.47,147.91z"/>
		<polygon class="st13" points="451.14,148.29 435.98,139.53 435.98,157.04 		"/>
	</g>
</g>
<g>
	<rect x="5.19" y="229.39" class="st6" width="64.98" height="78.14"/>
	<g>
		<rect x="12.18" y="217.88" class="st9" width="5.76" height="19.74"/>
		<rect x="34.8" y="217.88" class="st9" width="5.76" height="19.74"/>
		<rect x="57.42" y="217.88" class="st9" width="5.76" height="19.74"/>
	</g>
	<g>
		<g>
			<path class="st13" d="M37.08,288.66v5.32h-21.3v-4.23l10.87-10.27c2.5-2.38,2.94-3.83,2.94-5.2c0-2.21-1.53-3.5-4.51-3.5
				c-2.42,0-4.47,0.93-5.84,2.82l-4.75-3.06c2.17-3.18,6.12-5.23,11.19-5.23c6.28,0,10.47,3.22,10.47,8.34
				c0,2.74-0.77,5.24-4.71,8.9l-6.48,6.12H37.08z"/>
			<path class="st13" d="M61.07,285.12c0,4.99-3.67,9.34-11.72,9.34c-3.91,0-8.01-1.09-10.75-3.02l2.58-4.99
				c2.13,1.61,5.07,2.54,8.01,2.54c3.26,0,5.27-1.37,5.27-3.66c0-2.22-1.45-3.67-6.56-3.67H40.7l1.45-15.87h17.19v5.24H47.58
				l-0.44,5.36h2.3C57.77,276.38,61.07,280.12,61.07,285.12z"/>
		</g>
	</g>
	<g>
		<g>
			<path class="st13" d="M35.96,244.07l-4.81,14.71h-3.66l-3.24-9.96l-3.34,9.96h-3.64l-4.83-14.71h3.53l3.32,10.34l3.47-10.34h3.15
				l3.36,10.43l3.43-10.43H35.96z"/>
			<path class="st13" d="M47.81,254.05h-8.56c0.31,1.41,1.51,2.27,3.24,2.27c1.2,0,2.06-0.36,2.84-1.09l1.74,1.89
				c-1.05,1.2-2.63,1.83-4.67,1.83c-3.91,0-6.45-2.46-6.45-5.82c0-3.38,2.59-5.82,6.03-5.82c3.32,0,5.89,2.23,5.89,5.86
				C47.87,253.42,47.83,253.78,47.81,254.05z M39.21,252.14h5.57c-0.23-1.43-1.3-2.36-2.77-2.36
				C40.52,249.79,39.44,250.69,39.21,252.14z"/>
			<path class="st13" d="M61.58,243.19v15.6h-3.13v-1.3c-0.82,0.99-2.02,1.47-3.53,1.47c-3.2,0-5.65-2.27-5.65-5.82
				c0-3.55,2.46-5.82,5.65-5.82c1.39,0,2.56,0.44,3.38,1.37v-5.49H61.58z M58.37,253.13c0-1.96-1.26-3.13-2.88-3.13
				c-1.64,0-2.9,1.18-2.9,3.13c0,1.96,1.26,3.13,2.9,3.13C57.11,256.26,58.37,255.09,58.37,253.13z"/>
		</g>
	</g>
</g>
<g>
	<polygon class="st7" points="551.55,229.33 518.43,229.33 518.43,190.37 524.09,184.94 551.55,184.94 	"/>
	<polygon class="st9" points="518.43,191.48 529.04,191.48 524.75,187.04 524.75,190.37 518.54,190.37 518.43,190.54 	"/>
	<line class="st8" x1="524.67" y1="196.85" x2="546.08" y2="196.85"/>
	<line class="st8" x1="524.67" y1="202.24" x2="546.08" y2="202.24"/>
	<line class="st8" x1="524.67" y1="207.63" x2="546.08" y2="207.63"/>
	<line class="st8" x1="524.67" y1="213.02" x2="546.08" y2="213.02"/>
	<line class="st8" x1="524.67" y1="218.41" x2="546.08" y2="218.41"/>
</g>
<g>
	<polygon class="st7" points="593.48,258.02 560.37,258.02 560.37,219.06 566.02,213.63 593.48,213.63 	"/>
	<polygon class="st9" points="560.37,220.18 570.97,220.18 566.68,215.73 566.68,219.06 560.47,219.06 560.37,219.23 	"/>
	<line class="st8" x1="566.6" y1="225.54" x2="588.01" y2="225.54"/>
	<line class="st8" x1="566.6" y1="230.93" x2="588.01" y2="230.93"/>
	<line class="st8" x1="566.6" y1="236.32" x2="588.01" y2="236.32"/>
	<line class="st8" x1="566.6" y1="241.71" x2="588.01" y2="241.71"/>
	<line class="st8" x1="566.6" y1="247.1" x2="588.01" y2="247.1"/>
</g>
<g>
	<g>
		<path class="st6" d="M25.57,367.62c2.81,1.23,9.68,1.07,9.68,1.07c0.07,0-1.48-4.5-1.61-4.77c-1.51-3.15-6.27-8.36-10.15-7.84
			c-2.79,0.38-4.35,3.17-3.72,5.8C20.42,364.58,23.18,366.58,25.57,367.62z"/>
		<path class="st6" d="M27.94,387.52c2.91,0.42,9.04-1.35,9.53-1.5c0.97,3.43,2.24,6.88,3.72,10.29c0.84,1.95,1.75,3.89,2.69,5.83
			c-0.56-0.82-1.07-1.55-1.15-1.64c-2.29-2.64-8.26-6.41-11.86-4.88c-2.6,1.1-3.36,4.21-2.05,6.58c1.33,2.42,4.52,3.62,7.1,3.99
			c2.62,0.38,7.88-1.03,9.27-1.42c0.37,0.74,0.73,1.48,1.1,2.22c1.77,3.54,3.56,7.05,5.21,10.56c0.58,1.24,1.11,2.47,1.64,3.71
			c-0.5-0.73-0.92-1.34-1-1.42c-2.29-2.64-8.26-6.41-11.86-4.88c-2.6,1.1-3.36,4.21-2.05,6.58c1.33,2.42,4.52,3.62,7.1,3.99
			c2.5,0.36,7.37-0.89,9.01-1.35c0.51,1.28,1.02,2.57,1.45,3.83c0.28,0.87,0.6,1.69,0.83,2.58c0.25,0.88,0.49,1.74,0.73,2.6
			c0.4,1.67,0.83,3.4,1.18,5.04c0.25,1.14,0.47,2.23,0.7,3.33c-0.56-1.24-1.72-3.63-1.84-3.82c-1.86-2.96-7.19-7.58-10.99-6.62
			c-2.73,0.7-3.95,3.65-3.02,6.19c0.95,2.59,3.92,4.26,6.41,5.02c2.75,0.84,8.83,0.07,9.59-0.03c0.36,1.82,0.7,3.59,0.99,5.27
			c0.65,3.7,1.14,7.02,1.52,9.83h2.57c-0.45-2.91-1.03-6.37-1.81-10.25c-0.36-1.85-0.79-3.81-1.24-5.83
			c0.46-0.18,3.05-1.23,5.35-2.52c2,2.17,7.14,4.71,7.8,5.03c-0.7,1.72-1.39,3.38-2.08,4.94c-1.42,3.27-2.77,6.16-3.96,8.63h2.77
			c1.02-2.27,2.15-4.86,3.32-7.73c0.72-1.74,1.45-3.62,2.18-5.55c0.74,0.15,6.76,1.38,9.57,0.74c2.55-0.58,5.63-2.02,6.77-4.53
			c1.12-2.46,0.12-5.5-2.56-6.4c-3.71-1.25-9.37,2.97-11.45,5.78c-0.12,0.17-1.25,2.11-1.94,3.35c0.29-0.79,0.59-1.56,0.88-2.37
			c0.59-1.61,1.14-3.24,1.73-4.99c0.26-0.85,0.51-1.72,0.78-2.59c0.28-0.86,0.46-1.8,0.7-2.71c0.5-2.12,0.91-4.29,1.28-6.49
			c1.41,0.51,6.46,2.27,9.08,2.09c2.6-0.18,5.87-1.14,7.38-3.46c1.48-2.27,0.95-5.42-1.56-6.71c-3.48-1.79-9.71,1.51-12.19,3.98
			c-0.15,0.15-1.73,2.12-2.58,3.22c0.21-1.32,0.42-2.64,0.59-3.98c0.48-3.88,0.85-7.82,1.23-11.76c0.12-1.2,0.25-2.4,0.37-3.6
			c0.5,0.19,6.46,2.41,9.39,2.2c2.6-0.18,5.87-1.14,7.38-3.46c1.48-2.27,0.95-5.42-1.56-6.71c-3.48-1.79-9.71,1.51-12.19,3.98
			c-0.19,0.19-2.45,3.02-3,3.77c0.28-2.64,0.58-5.28,0.99-7.86c0.55-3.56,1.29-7.03,2.26-10.34c0.23,0.09,6.44,2.43,9.44,2.22
			c2.6-0.18,5.87-1.14,7.38-3.46c1.48-2.27,0.95-5.42-1.56-6.71c-3.48-1.79-9.71,1.51-12.19,3.98c-0.19,0.19-2.63,3.25-3.03,3.83
			c0.06-0.2,0.1-0.41,0.16-0.6c1.07-3.52,2.56-6.79,4.09-9.78c0.89-1.74,1.84-3.36,2.8-4.91c1.11,0.55,6.22,3.03,8.94,3.14
			c2.61,0.1,5.96-0.49,7.71-2.62c1.72-2.09,1.54-5.29-0.81-6.84c-3.26-2.17-9.82,0.44-12.55,2.62c-0.15,0.12-1.53,1.49-2.51,2.5
			c0.44-0.69,0.89-1.42,1.32-2.07c1.64-2.47,3.29-4.62,4.77-6.52c0.85-1.07,1.64-2.03,2.39-2.91c1.37-0.02,6.91-0.19,9.33-1.33
			c2.36-1.11,5.06-3.18,5.64-5.88c0.56-2.65-1.07-5.4-3.87-5.7c-3.89-0.42-8.52,4.91-9.94,8.11c-0.12,0.28-1.55,4.81-1.48,4.81
			c0,0,0.07,0,0.08,0c-0.74,0.84-1.52,1.74-2.35,2.75c-1.52,1.87-3.22,4-4.92,6.44c-1.7,2.43-3.48,5.13-5.1,8.13
			c-1.63,3.01-3.19,6.26-4.36,9.81c-0.01,0.04-0.02,0.08-0.04,0.12c0.02-1.15-0.03-4.35-0.06-4.6c-0.45-3.47-3.35-9.9-7.2-10.61
			c-2.77-0.51-5.12,1.66-5.34,4.36c-0.22,2.75,1.77,5.51,3.72,7.25c2.2,1.96,8.29,3.86,8.78,4.01c-1.09,3.4-1.92,6.97-2.57,10.63
			c-0.37,2.09-0.68,4.21-0.97,6.34c-0.01-0.99-0.03-1.88-0.05-2c-0.45-3.47-3.35-9.9-7.2-10.61c-2.77-0.51-5.12,1.66-5.34,4.36
			c-0.23,2.75,1.77,5.51,3.72,7.25c1.98,1.76,7.14,3.49,8.51,3.93c-0.1,0.82-0.21,1.63-0.31,2.45c-0.47,3.93-0.92,7.85-1.48,11.68
			c-0.2,1.35-0.44,2.67-0.68,4c-0.01-0.88-0.03-1.62-0.05-1.73c-0.45-3.47-3.35-9.9-7.2-10.61c-2.77-0.51-5.12,1.66-5.34,4.36
			c-0.23,2.75,1.77,5.51,3.72,7.25c1.88,1.68,6.64,3.32,8.26,3.85c-0.29,1.35-0.57,2.7-0.91,4c-0.25,0.88-0.43,1.74-0.73,2.61
			c-0.28,0.87-0.56,1.72-0.83,2.57c-0.59,1.62-1.18,3.29-1.8,4.85c-0.42,1.09-0.84,2.12-1.26,3.16c0.21-1.34,0.57-3.98,0.58-4.2
			c0.05-2.32-0.77-6.1-2.41-8.75c0.01-0.34-0.01-0.68-0.06-1.02c-0.43-2.67-2.94-4.65-5.66-3.93c-3.78,1.01-6.18,7.65-6.36,11.14
			c-0.01,0.21,0.12,2.45,0.23,3.87c-0.19-0.82-0.37-1.62-0.57-2.47c-0.4-1.67-0.84-3.33-1.31-5.12c-0.26-0.85-0.52-1.72-0.78-2.59
			c-0.24-0.87-0.61-1.76-0.91-2.65c-0.75-2.04-1.61-4.08-2.51-6.11c1.46-0.35,6.64-1.67,8.72-3.27c2.07-1.59,4.27-4.19,4.25-6.95
			c-0.02-2.71-2.2-5.05-5-4.74c-3.89,0.42-7.27,6.62-7.97,10.04c-0.04,0.21-0.27,2.73-0.37,4.11c-0.56-1.22-1.11-2.43-1.71-3.65
			c-1.74-3.5-3.61-6.99-5.46-10.48c-0.57-1.07-1.12-2.14-1.68-3.21c0.52-0.12,6.71-1.56,9.04-3.34c2.07-1.59,4.27-4.19,4.25-6.95
			c-0.02-2.7-2.2-5.05-5-4.74c-3.89,0.42-7.27,6.62-7.97,10.04c-0.05,0.26-0.38,3.87-0.42,4.8c-1.23-2.36-2.42-4.72-3.51-7.1
			c-1.51-3.28-2.8-6.58-3.82-9.86c0.24-0.06,6.71-1.53,9.1-3.36c2.07-1.59,4.27-4.19,4.25-6.95c-0.02-2.71-2.2-5.05-5-4.74
			c-3.89,0.42-7.27,6.62-7.97,10.04c-0.06,0.27-0.4,4.16-0.42,4.87c-0.06-0.2-0.14-0.39-0.2-0.59c-1.04-3.53-1.61-7.07-1.98-10.42
			c-0.22-1.94-0.32-3.81-0.37-5.63c1.23-0.15,6.86-0.9,9.19-2.31c2.23-1.35,4.7-3.69,4.99-6.44c0.28-2.69-1.63-5.26-4.45-5.26
			c-3.91-0.01-7.95,5.78-9.03,9.11c-0.06,0.18-0.45,2.08-0.72,3.48c-0.01-0.82-0.04-1.67-0.04-2.46c0.01-2.96,0.19-5.67,0.38-8.07
			c0.12-1.36,0.25-2.59,0.39-3.74c1.13-0.78,5.66-3.97,7.05-6.26c1.36-2.23,2.47-5.45,1.46-8.02c-0.99-2.52-3.87-3.91-6.38-2.62
			c-3.48,1.8-4.39,8.8-3.82,12.24c0.05,0.3,1.36,4.87,1.42,4.83c0,0,0.06-0.04,0.07-0.05c-0.15,1.1-0.3,2.29-0.44,3.59
			c-0.24,2.4-0.49,5.11-0.55,8.08c-0.08,2.97-0.08,6.2,0.23,9.6c0.3,3.41,0.79,6.98,1.78,10.59c0.01,0.04,0.03,0.08,0.04,0.12
			c-0.62-0.97-2.43-3.61-2.59-3.8c-2.29-2.64-8.26-6.41-11.86-4.88c-2.6,1.1-3.36,4.21-2.05,6.58
			C22.18,385.95,25.36,387.15,27.94,387.52z"/>
		<path class="st6" d="M95.06,369.13c0.06,0.04,1.25-4.57,1.29-4.86c0.48-3.46-0.62-10.43-4.15-12.14c-2.54-1.23-5.38,0.25-6.3,2.79
			c-0.95,2.6,0.25,5.78,1.67,7.97C89.24,365.47,95.05,369.13,95.06,369.13z"/>
	</g>
	<polygon class="st7" points="86.16,494.55 48.61,494.55 43.92,452.85 90.85,452.85 	"/>
	<g>
		<polygon class="st9" points="44.78,460.49 45.23,464.53 89.54,464.53 89.99,460.49 		"/>
		<polygon class="st9" points="88.54,473.42 88.99,469.38 45.78,469.38 46.23,473.42 		"/>
	</g>
</g>
</svg>
