<?xml version="1.0" encoding="utf-8"?>
<!-- Generator: Adobe Illustrator 24.3.0, SVG Export Plug-In . SVG Version: 6.00 Build 0)  -->
<svg version="1.1" id="Layer_1" xmlns="http://www.w3.org/2000/svg" xmlns:xlink="http://www.w3.org/1999/xlink" x="0px" y="0px"
	 viewBox="0 0 750 440" style="enable-background:new 0 0 750 440;" xml:space="preserve">
<style type="text/css">
	.st0{fill:#F0AE08;}
	.st1{fill:#263339;stroke:#263339;stroke-linecap:round;stroke-linejoin:round;stroke-miterlimit:10;}
	.st2{fill:#FFFFFF;stroke:#263339;stroke-linecap:round;stroke-linejoin:round;stroke-miterlimit:10;}
	.st3{fill:none;stroke:#263339;stroke-linecap:round;stroke-linejoin:round;stroke-miterlimit:10;}
	.st4{fill:#263339;}
	.st5{fill:none;stroke:#263339;stroke-width:2;stroke-linecap:round;stroke-linejoin:round;stroke-miterlimit:10;}
	.st6{fill:none;stroke:#FFFFFF;stroke-linecap:round;stroke-linejoin:round;stroke-miterlimit:10;}
	.st7{fill:none;stroke:#263339;stroke-width:3;stroke-linecap:round;stroke-linejoin:round;stroke-miterlimit:10;}
	.st8{fill:none;stroke:#F0AE08;stroke-linecap:round;stroke-linejoin:round;stroke-miterlimit:10;}
	.st9{fill:#263339;stroke:#FFFFFF;stroke-miterlimit:10;}
	.st10{fill:none;stroke:#FFFFFF;stroke-linecap:round;stroke-linejoin:round;stroke-miterlimit:9.9999;}
	.st11{fill:#3564AD;}
	.st12{fill:#FFFFFF;}
	.st13{fill:#A2A7A9;}
</style>
<g id="OBJECTS">
	<g>
		<path class="st0" d="M43.24,295.68c3.62,1.58,12.45,1.38,12.46,1.38c0.09,0-1.9-5.79-2.07-6.13c-1.94-4.06-8.07-10.75-13.06-10.08
			c-3.59,0.48-5.59,4.08-4.79,7.47C36.63,291.77,40.17,294.34,43.24,295.68z"/>
		<path class="st0" d="M46.3,321.29c3.75,0.54,11.64-1.74,12.27-1.93c1.25,4.42,2.88,8.85,4.79,13.24c1.09,2.52,2.26,5.01,3.46,7.49
			c-0.72-1.05-1.37-1.99-1.48-2.11c-2.94-3.41-10.62-8.24-15.26-6.27c-3.34,1.42-4.32,5.42-2.64,8.47c1.72,3.11,5.81,4.65,9.13,5.13
			c3.37,0.49,10.13-1.32,11.92-1.83c0.47,0.95,0.94,1.9,1.41,2.85c2.28,4.55,4.58,9.07,6.7,13.59c0.75,1.59,1.42,3.18,2.11,4.78
			c-0.64-0.94-1.18-1.72-1.28-1.83c-2.94-3.39-10.62-8.24-15.26-6.27c-3.34,1.42-4.32,5.42-2.64,8.47c1.72,3.11,5.81,4.65,9.13,5.13
			c3.22,0.47,9.48-1.15,11.6-1.74c0.65,1.65,1.31,3.31,1.86,4.94c0.36,1.12,0.78,2.17,1.07,3.32c0.32,1.12,0.63,2.25,0.94,3.36
			c0.52,2.15,1.06,4.37,1.52,6.48c0.32,1.47,0.6,2.88,0.9,4.28c-0.73-1.59-2.21-4.68-2.37-4.92c-2.39-3.8-9.25-9.75-14.13-8.51
			c-3.52,0.9-5.08,4.7-3.89,7.97c1.22,3.33,5.03,5.48,8.24,6.47c3.54,1.09,11.37,0.1,12.34-0.04c0.47,2.34,0.9,4.62,1.28,6.77
			c0.84,4.76,1.47,9.03,1.95,12.64h3.29c-0.58-3.74-1.33-8.19-2.32-13.19c-0.47-2.38-1.01-4.91-1.6-7.5
			c0.59-0.23,3.92-1.58,6.89-3.23c2.58,2.79,9.18,6.06,10.03,6.47c-0.9,2.21-1.79,4.36-2.67,6.36c-1.83,4.21-3.57,7.93-5.1,11.09
			h3.57c1.32-2.92,2.76-6.26,4.27-9.93c0.93-2.25,1.86-4.65,2.8-7.13c0.95,0.2,8.7,1.78,12.3,0.96c3.27-0.74,7.24-2.59,8.71-5.84
			c1.43-3.17,0.15-7.08-3.29-8.23c-4.78-1.6-12.06,3.81-14.72,7.44c-0.16,0.21-1.6,2.71-2.49,4.32c0.38-1.01,0.77-2,1.14-3.05
			c0.77-2.07,1.46-4.17,2.22-6.42c0.33-1.1,0.67-2.21,1-3.33c0.36-1.11,0.59-2.32,0.9-3.49c0.65-2.73,1.17-5.52,1.64-8.34
			c1.81,0.67,8.32,2.92,11.69,2.69c3.34-0.23,7.55-1.47,9.49-4.44c1.9-2.91,1.22-6.97-2-8.64c-4.48-2.31-12.5,1.95-15.68,5.12
			c-0.2,0.2-2.23,2.73-3.32,4.15c0.27-1.7,0.54-3.39,0.75-5.12c0.62-5,1.09-10.07,1.58-15.12c0.15-1.55,0.32-3.1,0.48-4.64
			c0.64,0.25,8.3,3.1,12.08,2.83c3.34-0.23,7.55-1.47,9.49-4.44c1.9-2.91,1.22-6.97-2-8.64c-4.48-2.31-12.5,1.95-15.68,5.12
			c-0.23,0.23-3.16,3.89-3.85,4.85c0.36-3.41,0.75-6.79,1.27-10.11c0.72-4.58,1.67-9.05,2.9-13.29c0.3,0.11,8.28,3.12,12.14,2.85
			c3.34-0.23,7.55-1.47,9.49-4.44c1.9-2.91,1.22-6.97-2-8.64c-4.48-2.31-12.5,1.95-15.68,5.12c-0.25,0.25-3.38,4.17-3.9,4.92
			c0.07-0.25,0.12-0.52,0.2-0.78c1.38-4.53,3.29-8.72,5.27-12.59c1.15-2.25,2.37-4.32,3.59-6.32c1.43,0.72,8,3.9,11.5,4.05
			c3.36,0.14,7.66-0.63,9.92-3.38c2.21-2.69,1.99-6.8-1.04-8.81c-4.2-2.79-12.64,0.57-16.15,3.37c-0.19,0.15-1.96,1.91-3.23,3.22
			c0.57-0.89,1.14-1.83,1.7-2.67c2.11-3.17,4.23-5.95,6.13-8.39c1.1-1.38,2.11-2.6,3.07-3.74c1.76-0.02,8.9-0.25,12.01-1.72
			c3.04-1.43,6.52-4.08,7.26-7.56c0.72-3.41-1.38-6.95-4.99-7.33c-5.01-0.54-10.96,6.32-12.78,10.43c-0.16,0.36-1.99,6.19-1.9,6.19
			c0,0,0.09,0,0.11,0c-0.95,1.07-1.95,2.25-3.02,3.53c-1.96,2.41-4.15,5.15-6.33,8.28c-2.2,3.13-4.48,6.59-6.56,10.46
			c-2.1,3.87-4.1,8.05-5.6,12.62c-0.01,0.05-0.02,0.11-0.05,0.16c0.02-1.48-0.04-5.6-0.09-5.91c-0.58-4.45-4.32-12.73-9.27-13.65
			c-3.57-0.65-6.59,2.13-6.87,5.6c-0.28,3.54,2.28,7.08,4.79,9.33c2.83,2.52,10.66,4.96,11.29,5.16c-1.39,4.37-2.48,8.97-3.31,13.67
			c-0.48,2.69-0.88,5.42-1.25,8.16c-0.02-1.27-0.05-2.42-0.06-2.58c-0.58-4.45-4.32-12.73-9.27-13.65c-3.57-0.65-6.59,2.13-6.87,5.6
			c-0.3,3.54,2.28,7.08,4.79,9.33c2.54,2.27,9.18,4.49,10.95,5.05c-0.14,1.05-0.27,2.1-0.39,3.16c-0.6,5.05-1.18,10.09-1.9,15.03
			c-0.25,1.74-0.57,3.44-0.88,5.15c-0.01-1.14-0.04-2.09-0.06-2.23c-0.58-4.45-4.32-12.73-9.27-13.65c-3.57-0.65-6.59,2.13-6.87,5.6
			c-0.3,3.54,2.28,7.08,4.79,9.33c2.42,2.17,8.54,4.27,10.64,4.95c-0.37,1.74-0.73,3.48-1.17,5.15c-0.32,1.14-0.56,2.25-0.94,3.36
			c-0.36,1.11-0.72,2.22-1.07,3.31c-0.75,2.07-1.53,4.23-2.31,6.24c-0.54,1.41-1.07,2.73-1.62,4.06c0.27-1.73,0.74-5.12,0.74-5.4
			c0.07-2.99-0.99-7.84-3.1-11.25c0.01-0.44-0.01-0.88-0.09-1.32c-0.56-3.43-3.78-5.98-7.28-5.06c-4.86,1.3-7.95,9.83-8.18,14.33
			c-0.01,0.26,0.16,3.16,0.3,4.97c-0.25-1.06-0.47-2.09-0.74-3.17c-0.51-2.15-1.09-4.28-1.69-6.58c-0.33-1.1-0.67-2.21-1.01-3.33
			c-0.31-1.12-0.79-2.26-1.17-3.41c-0.96-2.63-2.06-5.26-3.23-7.86c1.89-0.46,8.55-2.15,11.23-4.21c2.67-2.05,5.49-5.39,5.47-8.95
			c-0.02-3.48-2.83-6.49-6.43-6.1c-5.01,0.54-9.35,8.51-10.25,12.92c-0.06,0.27-0.36,3.5-0.48,5.28c-0.72-1.57-1.42-3.13-2.2-4.69
			c-2.23-4.5-4.64-9-7.02-13.49c-0.73-1.37-1.44-2.75-2.16-4.13c0.67-0.15,8.64-2,11.64-4.31c2.67-2.05,5.49-5.39,5.47-8.95
			c-0.02-3.48-2.83-6.49-6.43-6.1c-5.01,0.54-9.35,8.51-10.25,12.92c-0.07,0.33-0.49,4.99-0.54,6.17c-1.58-3.04-3.12-6.07-4.52-9.13
			c-1.94-4.22-3.6-8.47-4.91-12.69c0.31-0.07,8.64-1.96,11.71-4.32c2.67-2.05,5.49-5.39,5.47-8.95c-0.02-3.48-2.83-6.49-6.43-6.1
			c-5.01,0.54-9.35,8.51-10.25,12.92c-0.07,0.35-0.52,5.36-0.54,6.27c-0.07-0.25-0.19-0.51-0.26-0.75
			c-1.35-4.54-2.07-9.09-2.54-13.4c-0.28-2.51-0.41-4.91-0.48-7.24c1.59-0.2,8.82-1.16,11.82-2.97c2.88-1.74,6.05-4.75,6.42-8.29
			c0.36-3.47-2.1-6.76-5.73-6.77c-5.03-0.01-10.23,7.44-11.61,11.71c-0.07,0.23-0.58,2.68-0.93,4.47c-0.01-1.06-0.05-2.15-0.05-3.16
			c0.01-3.81,0.25-7.29,0.48-10.38c0.15-1.75,0.32-3.33,0.49-4.81c1.46-1,7.28-5.11,9.07-8.05c1.75-2.86,3.17-7.01,1.88-10.32
			c-1.28-3.23-4.99-5.03-8.21-3.37c-4.47,2.31-5.65,11.32-4.91,15.75c0.06,0.38,1.75,6.26,1.83,6.21c0,0,0.07-0.05,0.09-0.06
			c-0.2,1.42-0.39,2.95-0.57,4.62c-0.31,3.08-0.63,6.58-0.72,10.4c-0.1,3.81-0.1,7.97,0.3,12.34c0.39,4.38,1.02,8.97,2.28,13.62
			c0.01,0.05,0.04,0.11,0.05,0.16c-0.79-1.25-3.12-4.65-3.33-4.89c-2.94-3.41-10.62-8.24-15.25-6.27c-3.34,1.42-4.32,5.42-2.64,8.47
			C38.87,319.27,42.97,320.8,46.3,321.29z"/>
		<path class="st0" d="M132.63,297.63c0.07,0.05,1.6-5.87,1.67-6.26c0.62-4.45-0.8-13.43-5.33-15.61c-3.27-1.58-6.92,0.32-8.11,3.59
			c-1.22,3.34,0.32,7.44,2.15,10.25C125.14,292.92,132.63,297.62,132.63,297.63z"/>
	</g>
	<g>
		<path class="st0" d="M678.62,361.23c2.16,0.94,7.44,0.83,7.45,0.83c0.05,0-1.14-3.46-1.23-3.66c-1.16-2.43-4.82-6.43-7.81-6.03
			c-2.15,0.3-3.34,2.44-2.86,4.47C674.66,358.89,676.79,360.42,678.62,361.23z"/>
		<path class="st0" d="M680.45,376.53c2.25,0.32,6.96-1.04,7.33-1.15c0.74,2.64,1.73,5.29,2.86,7.92c0.65,1.51,1.35,3,2.07,4.48
			c-0.43-0.63-0.81-1.18-0.89-1.26c-1.76-2.04-6.36-4.92-9.13-3.75c-2,0.85-2.58,3.23-1.58,5.06c1.02,1.86,3.48,2.79,5.47,3.07
			c2.01,0.3,6.06-0.79,7.13-1.1c0.28,0.57,0.56,1.14,0.84,1.7c1.37,2.71,2.74,5.43,4.01,8.12c0.44,0.95,0.85,1.9,1.26,2.85
			c-0.38-0.56-0.72-1.02-0.77-1.1c-1.76-2.04-6.36-4.92-9.13-3.75c-2,0.85-2.58,3.23-1.58,5.06c1.02,1.86,3.48,2.79,5.47,3.07
			c1.93,0.28,5.66-0.69,6.94-1.04c0.39,0.99,0.78,1.97,1.11,2.95c0.21,0.67,0.47,1.3,0.64,1.99c0.19,0.68,0.37,1.35,0.56,2
			c0.31,1.28,0.63,2.62,0.9,3.87c0.2,0.88,0.36,1.72,0.53,2.57c-0.43-0.95-1.32-2.8-1.42-2.94c-1.43-2.27-5.53-5.84-8.45-5.1
			c-2.1,0.53-3.05,2.81-2.33,4.76c0.73,2,3.01,3.28,4.94,3.86c2.11,0.64,6.8,0.06,7.38-0.02c0.28,1.39,0.54,2.76,0.77,4.05
			c0.51,2.85,0.88,5.4,1.17,7.56h1.97c-0.35-2.23-0.79-4.9-1.39-7.89c-0.28-1.42-0.6-2.94-0.95-4.49c0.36-0.14,2.34-0.95,4.12-1.94
			c1.54,1.67,5.49,3.63,6,3.87c-0.54,1.32-1.07,2.6-1.59,3.8c-1.09,2.52-2.13,4.74-3.05,6.64h2.13c0.79-1.75,1.65-3.74,2.55-5.95
			c0.56-1.35,1.11-2.79,1.68-4.27c0.57,0.12,5.2,1.06,7.37,0.57c1.96-0.44,4.33-1.55,5.21-3.49c0.86-1.9,0.09-4.23-1.96-4.92
			c-2.85-0.96-7.21,2.28-8.81,4.44c-0.1,0.12-0.96,1.63-1.49,2.58c0.22-0.6,0.46-1.2,0.68-1.83c0.46-1.25,0.88-2.49,1.33-3.84
			c0.2-0.65,0.39-1.32,0.59-1.99c0.21-0.67,0.36-1.38,0.53-2.09c0.38-1.63,0.7-3.29,0.99-4.99c1.09,0.39,4.97,1.75,6.98,1.6
			c2-0.14,4.52-0.88,5.68-2.65c1.14-1.74,0.73-4.17-1.2-5.17c-2.68-1.38-7.48,1.16-9.38,3.06c-0.12,0.12-1.33,1.63-1.99,2.48
			c0.16-1.01,0.32-2.04,0.46-3.06c0.37-2.99,0.65-6.02,0.95-9.05c0.09-0.93,0.19-1.85,0.28-2.78c0.38,0.15,4.97,1.85,7.22,1.69
			c2-0.14,4.52-0.88,5.68-2.65c1.14-1.74,0.73-4.17-1.2-5.17c-2.68-1.38-7.48,1.16-9.38,3.06c-0.15,0.15-1.89,2.32-2.31,2.9
			c0.21-2.04,0.44-4.06,0.77-6.05c0.42-2.74,1-5.4,1.74-7.95c0.19,0.07,4.96,1.88,7.27,1.7c2-0.14,4.52-0.88,5.68-2.65
			c1.14-1.74,0.73-4.17-1.2-5.17c-2.68-1.38-7.48,1.16-9.38,3.06c-0.15,0.15-2.02,2.49-2.33,2.95c0.05-0.15,0.07-0.31,0.12-0.47
			c0.83-2.7,1.96-5.22,3.15-7.53c0.68-1.35,1.42-2.58,2.15-3.78c0.85,0.43,4.79,2.33,6.87,2.42c2.01,0.07,4.59-0.37,5.94-2.02
			c1.32-1.6,1.18-4.07-0.62-5.27c-2.51-1.67-7.55,0.33-9.66,2.01c-0.11,0.09-1.17,1.15-1.94,1.93c0.35-0.53,0.68-1.09,1.02-1.59
			c1.26-1.9,2.53-3.55,3.66-5.02c0.65-0.83,1.26-1.55,1.84-2.23c1.06-0.01,5.32-0.15,7.18-1.02c1.81-0.85,3.9-2.44,4.33-4.53
			c0.43-2.04-0.83-4.16-2.97-4.39c-3-0.32-6.55,3.78-7.65,6.23c-0.1,0.21-1.2,3.7-1.14,3.7c0,0,0.05,0,0.06,0
			c-0.57,0.64-1.17,1.35-1.8,2.11c-1.17,1.44-2.48,3.07-3.79,4.95c-1.31,1.88-2.68,3.95-3.92,6.26c-1.26,2.32-2.46,4.81-3.36,7.55
			c-0.01,0.02-0.01,0.06-0.02,0.1c0.01-0.88-0.02-3.34-0.05-3.54c-0.35-2.67-2.58-7.61-5.54-8.17c-2.13-0.39-3.94,1.28-4.11,3.36
			c-0.17,2.12,1.36,4.24,2.86,5.58c1.69,1.51,6.38,2.97,6.75,3.08c-0.84,2.62-1.48,5.37-1.99,8.18c-0.28,1.62-0.53,3.25-0.74,4.89
			c-0.01-0.77-0.02-1.44-0.04-1.54c-0.35-2.67-2.58-7.61-5.54-8.17c-2.13-0.39-3.94,1.28-4.11,3.36c-0.17,2.12,1.36,4.24,2.86,5.58
			c1.52,1.36,5.49,2.69,6.55,3.02c-0.07,0.63-0.16,1.26-0.23,1.89c-0.36,3.02-0.7,6.03-1.14,8.98c-0.15,1.04-0.33,2.06-0.52,3.07
			c-0.01-0.68-0.02-1.25-0.04-1.33c-0.35-2.67-2.58-7.61-5.54-8.17c-2.13-0.39-3.94,1.27-4.11,3.36c-0.17,2.12,1.36,4.24,2.86,5.58
			c1.44,1.3,5.11,2.55,6.36,2.96c-0.22,1.04-0.43,2.07-0.7,3.07c-0.2,0.68-0.33,1.35-0.57,2.01c-0.21,0.67-0.43,1.32-0.64,1.97
			c-0.46,1.25-0.91,2.53-1.38,3.73c-0.32,0.84-0.64,1.63-0.96,2.43c0.16-1.04,0.44-3.06,0.44-3.23c0.04-1.79-0.59-4.69-1.85-6.73
			c0.01-0.26-0.01-0.53-0.05-0.79c-0.33-2.06-2.26-3.58-4.36-3.02c-2.91,0.78-4.75,5.89-4.89,8.56c-0.01,0.16,0.1,1.89,0.17,2.97
			c-0.15-0.63-0.28-1.25-0.44-1.9c-0.31-1.28-0.64-2.57-1.01-3.94c-0.2-0.65-0.39-1.32-0.6-1.99c-0.19-0.67-0.47-1.36-0.7-2.04
			c-0.58-1.57-1.23-3.13-1.94-4.7c1.12-0.27,5.11-1.28,6.71-2.52c1.59-1.22,3.28-3.22,3.27-5.34c-0.01-2.09-1.69-3.89-3.85-3.65
			c-3,0.32-5.59,5.1-6.13,7.72c-0.04,0.16-0.21,2.1-0.28,3.16c-0.43-0.94-0.85-1.88-1.31-2.8c-1.33-2.69-2.78-5.38-4.2-8.07
			c-0.43-0.83-0.86-1.64-1.3-2.47c0.41-0.09,5.17-1.2,6.96-2.57c1.59-1.22,3.28-3.22,3.27-5.34c-0.01-2.09-1.69-3.89-3.85-3.65
			c-3,0.32-5.59,5.1-6.13,7.72c-0.04,0.2-0.3,2.99-0.32,3.69c-0.94-1.81-1.86-3.63-2.7-5.47c-1.16-2.52-2.16-5.06-2.94-7.59
			c0.19-0.04,5.16-1.17,7-2.58c1.59-1.22,3.28-3.22,3.27-5.34c-0.01-2.09-1.69-3.89-3.85-3.65c-3,0.32-5.59,5.1-6.13,7.72
			c-0.04,0.21-0.31,3.2-0.32,3.75c-0.05-0.15-0.11-0.3-0.16-0.46c-0.8-2.71-1.23-5.44-1.52-8.02c-0.17-1.49-0.25-2.94-0.28-4.33
			c0.95-0.11,5.28-0.69,7.07-1.78c1.72-1.04,3.62-2.84,3.84-4.96c0.21-2.07-1.26-4.05-3.43-4.05c-3.01,0-6.12,4.45-6.95,7.01
			c-0.05,0.14-0.35,1.6-0.56,2.68c-0.01-0.63-0.04-1.28-0.02-1.89c0-2.28,0.15-4.37,0.3-6.21c0.09-1.05,0.2-2,0.3-2.88
			c0.88-0.6,4.36-3.06,5.43-4.81c1.05-1.72,1.9-4.2,1.12-6.17c-0.77-1.94-2.97-3.01-4.9-2.01c-2.68,1.38-3.38,6.76-2.94,9.42
			c0.04,0.23,1.05,3.74,1.1,3.71c0,0,0.04-0.02,0.05-0.04c-0.12,0.85-0.23,1.76-0.35,2.76c-0.19,1.85-0.37,3.94-0.43,6.22
			c-0.06,2.28-0.06,4.76,0.17,7.38c0.23,2.62,0.62,5.37,1.37,8.14c0.01,0.04,0.02,0.06,0.02,0.1c-0.47-0.74-1.86-2.78-2-2.92
			c-1.76-2.04-6.36-4.92-9.13-3.75c-2,0.85-2.58,3.23-1.58,5.06C676.01,375.33,678.46,376.25,680.45,376.53z"/>
		<path class="st0" d="M732.08,362.39c0.05,0.02,0.96-3.52,1-3.74c0.37-2.67-0.48-8.03-3.2-9.34c-1.95-0.94-4.13,0.2-4.85,2.15
			c-0.73,2,0.2,4.44,1.28,6.13C727.6,359.57,732.08,362.39,732.08,362.39z"/>
	</g>
	<g>
		<g>
			<g>
				<path class="st1" d="M424.97,366.86c0,0,20.67-3.13,42.82-3.5c22.14-0.36,29.41,1.09,34.85,2.9
					c5.44,1.81,10.32,17.09,3.16,31.59c-7.16,14.51-32.19,26.48-66.31,23.58c-34.12-2.9-58.44-9.8-71.51-19.6
					s-1.46-15.24,13.07-23.24C395.56,370.62,415.19,366.37,424.97,366.86z"/>
				<path class="st2" d="M396.64,400.39c0,0,50.82-27.95,68.61-33.03c17.78-5.08,38.12-6.17,47.55,0c9.44,6.17,7.26,26.14,2.9,33.76
					s-39.56,23.59-59.17,29.41c-19.6,5.81-96.19,5.44-117.24,7.26c-21.05,1.81-71.87,0.73-79.14-3.27c-7.26-4-2.9-8.35,7.63-10.88
					c10.53-2.54,45.37-2.54,61.71-7.26C345.83,411.64,384.66,406.56,396.64,400.39z"/>
				<path class="st1" d="M515.7,401.1c2.12-3.71,3.73-10.37,3.71-16.92c-13.15,10.43-33.65,22.77-61.98,32.89
					c-26.86,9.6-102.94,18.19-134.41,21.43c6.26-0.12,11.9-0.37,16.25-0.75c21.05-1.81,97.65-1.46,117.24-7.26
					C476.14,424.7,511.34,408.73,515.7,401.1z"/>
				<path class="st1" d="M479.78,421.93c5.39-2.28,10.77-4.76,15.7-7.23c1.09-5.34,2.37-21.03-9.12-51.26
					c-6.9,0.58-14.19,1.94-21.1,3.91C465.24,367.35,486.78,391.97,479.78,421.93z"/>
				<path class="st2" d="M346.96,412.38c-6.84,1.36-12.99,2.68-17.47,3.97c-16.34,4.71-51.19,4.71-61.71,7.26
					c-10.53,2.54-14.88,6.9-7.63,10.88c7.26,4,58.08,5.08,79.14,3.27c2.48-0.21,5.75-0.39,9.59-0.57
					C340.49,428.08,344.31,417.42,346.96,412.38z"/>
			</g>
			<g>
				<path class="st2" d="M313.88,354.64c0,0-33.03,4-49.73,5.44c-16.7,1.46-46.83,14.88-53,27.95
					c-6.17,13.07,12.34,28.68,22.87,31.95c10.53,3.27,42.1,10.53,59.53,9.44c17.42-1.09,68.97-16.34,78.04-19.24
					c9.07-2.9,25.05-9.8,25.05-9.8s-15.24,0-41.02-13.07C329.85,374.25,325.86,360.81,313.88,354.64z"/>
				<path class="st1" d="M242.96,365.02c0,0,26.05-2.71,37.98,5.97s19.53,35.27,19.53,35.27l55.13-18.94c0,0-4.13-4.39-14.44-16.87
					c-10.3-12.48-40.7-19.53-58.6-15.73C264.67,358.51,242.96,365.02,242.96,365.02z"/>
				<path class="st2" d="M368.98,411c1.06-0.32,1.96-0.6,2.62-0.81c9.07-2.9,25.05-9.8,25.05-9.8s-11.71,0-31.95-8.8
					C367.58,396.45,370.46,403.53,368.98,411z"/>
				<path class="st1" d="M388.64,403.74c-13.94,1.75-38.13,5.57-65.64,13.35c-31.38,8.88-69.21,5.71-87.55,3.32
					c11.7,3.43,41.41,10.06,58.12,9.01c17.42-1.09,68.97-16.34,78.04-19.24C376.47,408.63,383.32,405.92,388.64,403.74z"/>
			</g>
		</g>
		<g>
			<path class="st2" d="M423.02,249.16l-7.45,73.37c0,0,3.53,17.66,5.89,24.72s4.71,18.44,3.53,19.62
				c-1.17,1.17-1.96,0.39-10.21,2.75c-8.24,2.36-18.05,16.47-30.6,21.97c-12.55,5.49-22.75,2.75-34.53-1.96
				c-11.77-4.71-33.74-33.35-38.45-34.13c-4.71-0.79-18.83-3.13-24.72-5.1c-5.89-1.96-12.94-10.21-12.94-10.21s-1.17,0-1.17-4.32
				c0-4.32,0.39-4.71,0.39-4.71s-3.13-2.75-3.92-6.28c-0.79-3.53,7.45-22.36,7.45-34.13s5.89-56.11,5.89-61.6
				c0-5.49,8.24-6.68,16.87-10.21c8.63-3.53,54.15-20.4,54.93-25.11c0.79-4.71,3.92-37.66,3.92-37.66s24.42,26.11,27.47,28.25
				c3.92,2.75,5.89,5.49,5.89,5.49l-2.75,12.94c0,0,11.77,8.63,19.62,13.34c7.85,4.71,18.44,9.02,18.83,12.17"/>
		</g>
		<path class="st3" d="M299.69,335.46c1.8,1.39,3.57,3.21,5.23,5.52"/>
		<path class="st3" d="M272.34,335.86c0,0,11.27-7.82,22.53-3.21"/>
		<g>
			<path class="st2" d="M395.55,207.9c-4.02-2.81-7.06-5.05-7.06-5.05l2.75-12.94c0,0-1.96-2.75-5.89-5.49
				c-3.05-2.13-27.47-28.25-27.47-28.25s-3.13,32.96-3.92,37.66c-0.26,1.53-5.23,4.33-12.11,7.55c1.2,7.56,5.5,20.2,20.74,25.01
				C377.81,231.21,389.59,217.28,395.55,207.9z"/>
			<path class="st4" d="M388.6,202.94c-0.07-0.05-0.11-0.09-0.11-0.09l2.75-12.94c0,0-1.96-2.75-5.89-5.49
				c-1.73-1.21-10.35-10.16-17.47-17.66l-1.81,8.59C366.05,175.34,366.08,200.02,388.6,202.94z"/>
		</g>
		<g>
			<path class="st1" d="M363.93,75.23c0,0-1.12-9.37-8.61-11.24s-24.73-0.75-30.73,10.49s-1.49,19.85,0.75,21.36
				s4.12,2.25,4.12,2.25l1.88-9.37c0,0,0.75,8.24,6,10.12c5.24,1.88,16.12,0,16.12,0S362.81,92.09,363.93,75.23z"/>
			<path class="st1" d="M433.21,108.7c0,0,13.34,8.63,13.34,17.26c0,8.63-16.47,11.77-16.47,11.77L433.21,108.7z"/>
			<g>
				<path class="st2" d="M436.26,110.45c0,0-1.49,17.98-3,28.1c-1.49,10.12-7.87,18.36-8.24,25.1
					c-0.37,6.75-15.36,23.24-22.85,28.85c-7.49,5.61-18.73,3.75-24.36-0.75c-5.61-4.49-14.99-15.36-19.48-26.98
					c-4.49-11.61-1.12-28.48,0-33.73c1.12-5.24,29.22-25.85,50.58-25.85S436.26,110.45,436.26,110.45z"/>
				<path class="st3" d="M412.65,152.42c0,0,1.49,13.49,1.49,14.61s-3.37,4.49-9,1.12"/>
				<path class="st3" d="M390.17,168.15c0,0,6,7.49,15.73,7.12"/>
				<g>
					<path class="st5" d="M410.39,140.42c0,0-12.36-7.49-28.1-5.24c0,0-4.49,0-1.88,3.37c0,0-1.12,11.24,1.49,14.61
						c2.63,3.37,8.61,6,14.61,6C402.53,159.15,408.53,152.03,410.39,140.42z"/>
					<line class="st5" x1="380.05" y1="135.55" x2="355.69" y2="134.06"/>
					<path class="st5" d="M410.39,140.42l6.37,1.88c0,0-2.63,13.86-1.12,17.61l0,0c0.97,2.44,3.06,4.26,5.6,4.91
						c2.12,0.54,4.55,1.09,6.02,1.09c3,0,9.37-6,10.87-16.49c0,0,1.88-0.75,1.12-1.88c-0.75-1.12-9.81-6.37-22.17-5.24"/>
					<path class="st5" d="M410.02,143.79c0,0,4.78,0.31,6.19,2.11"/>
				</g>
				<path class="st4" d="M397.09,148.07c-0.43,2.46-1.65,4.29-2.71,4.11c-1.06-0.19-1.58-2.33-1.15-4.79
					c0.43-2.46,1.65-4.29,2.71-4.11C397,143.48,397.52,145.62,397.09,148.07z"/>
				
					<ellipse transform="matrix(0.2676 -0.9635 0.9635 0.2676 161.0041 520.2241)" class="st4" cx="422.7" cy="154.2" rx="4.05" ry="1.76"/>
				<path class="st5" d="M389.27,139.3c0,0,9.42-3.13,13.73,1.96"/>
				<path class="st5" d="M420.26,146.36c0,0,4.32-3.92,7.85,1.57"/>
			</g>
			<g>
				<path class="st1" d="M371.43,131.81c0,0,20.24-10.87,37.46-14.24c17.24-3.37,30.36-1.88,33.34-11.99
					c3-10.12-17.24-26.98-38.22-32.97c-20.98-6-46.09,0.37-56.21,15.36c-10.12,14.99-6.75,32.97-3.75,39.72
					c3,6.75,5.24,11.99,10.87,12.73S371.43,131.81,371.43,131.81z"/>
				<g>
					<path class="st6" d="M356.79,119.91c-2.17,1.32-4.02,2.81-5.47,4.52"/>
					<path class="st6" d="M427.26,94.39c0,0,5.47,3.28-10.38,9.83c-11.5,4.76-34.81,6.06-51.11,11.65"/>
					<path class="st6" d="M406.22,90.56c1.31-1.43,2.33-3.06,3.01-4.9"/>
					<path class="st6" d="M347.49,117.88c0,0-4.91-7.11,12.02-12.02c12.22-3.54,29.83-4.82,40.75-10.79"/>
				</g>
			</g>
			<path class="st2" d="M360.93,146.04c0,0-2.97-14.61-9.35-14.61c-6.38,0-7.22,6.75-4.68,14.99c2.55,8.24,6.8,10.87,10.62,8.24"/>
		</g>
		<path class="st3" d="M311.19,355.48c0,0,1.57-1.96,1.57-8.24s-4.32-27.07-6.28-41.59c-1.96-14.51-3.92-42.38-3.92-54.15"/>
		<path class="st3" d="M350.73,310.13c1.05,1.69,2.12,3.22,3.23,4.54"/>
		<path class="st3" d="M328.85,237.77c0,0,7.03,43.37,19.08,67.3"/>
		<path class="st3" d="M353.48,274.68c1.59,3,3.2,5.79,4.8,8.22"/>
		<path class="st3" d="M333.55,225.62c0,0,7.87,24.36,17.19,43.65"/>
		<g>
			<path class="st2" d="M249.2,338.61c0,0,4.32,3.53,12.94,3.53c8.63,0,16.09-4.32,27.07-1.57c10.98,2.75,10.98,13.73,9.81,16.87
				c-1.17,3.13-11.77,5.1-21.58,3.92c-9.81-1.17-29.81-3.13-29.81-3.13S250.77,346.84,249.2,338.61z"/>
			<g>
				<path class="st2" d="M241.2,328.64c0,0,0.91,4.08,5.9,6.81c5,2.73,6.81,9.98,6.81,14.07c0,4.08-0.91,6.36-0.91,6.36
					s-1.36,5.44-5.9,6.36c-4.54,0.91-7.27,3.63-12.71-1.81c-5.44-5.44-13.17-22.69-13.17-22.69l0.91-2.73c0,0,4.54,0,8.17-1.81
					C233.93,331.37,241.2,328.64,241.2,328.64z"/>
				<line class="st7" x1="215.78" y1="310.03" x2="247.1" y2="362.23"/>
				<path class="st2" d="M225.31,361.78c0,0,3.63,3.63,9.98,3.63s12.71-4.08,9.54-5.44c-3.18-1.36-5.44-2.73-7.71-1.81
					C234.84,359.05,225.31,361.78,225.31,361.78z"/>
				<path class="st2" d="M220.78,354.96c0,0,2.73,7.71,5,8.63c2.27,0.91,11.8-1.36,14.52-3.18c2.73-1.81-1.81-5-5.9-5
					C230.32,355.41,220.78,354.96,220.78,354.96z"/>
				<path class="st2" d="M218.95,343.17c0,0-1.81,9.53,1.81,11.8c3.63,2.27,17.71,3.18,19.07,0.46c1.36-2.73-3.63-4.08-8.63-6.36
					C226.22,346.8,218.95,343.17,218.95,343.17z"/>
				<path class="st2" d="M233.03,330c0,0,0.46,17.71,2.27,19.52c1.81,1.81,5.9,2.27,6.81,0.91c0.91-1.36,1.81-16.79-0.91-21.79
					C238.47,323.65,233.03,330,233.03,330z"/>
				<path class="st2" d="M222.13,335c0,0-5.9-1.36-5.9,4.54c0,5.9,8.17,9.53,11.8,9.98s7.71-0.91,4.54-3.63
					C229.4,343.18,224.86,337.27,222.13,335z"/>
			</g>
		</g>
		<g>
			<path class="st1" d="M266.69,363.73l25.41-3.63c0,0-3.27-4.71-11.61-4.71c-8.35,0-13.43,4-14.52,5.44
				C264.88,362.27,266.69,363.73,266.69,363.73z"/>
			<path class="st2" d="M317.87,393.85l40.66-14.15c0,0-9.8-20.69-28.31-27.95c-18.51-7.26-45.98-5.39-57.59-1.04l4.23,4.66
				c0,0,8.35,0.36,17.42,10.88c9.07,10.53,18.15,27.22,18.15,27.22L317.87,393.85z"/>
			<g>
				<path class="st8" d="M292.51,352.67c0,0,16.14-2.31,33.06,33.82"/>
				<path class="st8" d="M300.47,351.08c0,0,16.14-2.31,33.06,33.82"/>
				<path class="st8" d="M307.14,349.81c0,0,16.14-2.31,33.06,33.82"/>
			</g>
			<path class="st2" d="M209.71,389.13c0,0,18.15-26.86,51.9-24.68l5.08-0.73c0,0,3.27-7.63,12.71-5.81s33.76,39.2,33.76,39.2
				l4.71-3.27c0,0-12.85-21.76-22.64-34.1c-9.8-12.34-22.61-11.92-26.72-7.4c-2.52,2.76-5.95,9.02-5.95,9.02s-3.76-5.7-14.93-3.15
				c-13.72,3.15-21.29,9.24-25.19,13.46c-5.68,6.13-17.12,14.46-16.02,13.82L209.71,389.13z"/>
			<polygon class="st2" points="313.15,397.12 356.36,382.24 358.53,379.69 317.87,393.85 			"/>
		</g>
	</g>
	<g>
		<path class="st2" d="M419.7,222.67c0,0,15.59,5.38,17.94,13.62c2.36,8.24,14.02,53.27,17.16,59.95
			c3.13,6.68,10.21,10.59,10.21,15.7c0,5.11,0.39,9.02,0.39,9.02s8.24,0.39,9.02,7.06c0.79,6.68,2.36,15.3,2.36,15.3l31.39,48.57
			c0,0,18.73,1.51,23.04,1.11c4.32-0.39,17.14,0.43,21.83,2.9c1.81,0.95,5.43,4.07,8.27,14.06c1.41,4.96,4.53,14.57,2.57,14.18
			c-1.96-0.39-4.37-5.85-5.16-7.03c-0.79-1.17-3.08-7.89-3.08-7.89s1.57,11.38,1.96,13.73c0.39,2.36-0.79,4.71-0.79,4.71l-0.17,0.06
			c-1.92,0.78-4.06,0.91-6.07,0.37l-1.62-0.43l0,0c-1.51,0.81-3.28,1-4.92,0.52l-1.75-0.52c0,0-2.54-8.06-4.9-11.19
			s-9.75-6.54-9.75-6.54s7.98,9.11,7.59,14.99c-0.16,2.38,0.39,4.32-1.57,3.13c-1.96-1.17-4.32-7.06-8.63-9.02
			c-4.32-1.96-14.51-4.71-18.44-7.06c-3.92-2.36-10.21-10.98-10.21-10.98l-51.4-46.3c0,0-5.1-5.1-5.89-7.85
			c-0.79-2.75-0.79-2.75-0.79-2.75s-7.06-4.32-9.02-6.68s-2.75-7.45-2.75-7.45l-10.59-12.17L423,250.7"/>
		<path class="st2" d="M419,266.27l-3.06,51.54l10.59,12.17c0,0,0.79,5.1,2.75,7.45c1.96,2.36,9.02,6.68,9.02,6.68s0,0,0.79,2.75
			c0.79,2.75,5.89,7.85,5.89,7.85l7.69,6.94c3.12-6.1,10.55-17.09,23.99-18.86c-0.35-1.97-1.59-9.07-2.26-14.76
			c-0.79-6.68-9.02-7.06-9.02-7.06s-0.39-3.92-0.39-9.02c0-5.1-7.06-9.02-10.21-15.7c-3.13-6.68-14.81-51.7-17.16-59.95
			s-17.94-13.62-17.94-13.62"/>
		<polygon class="st4" points="418.39,281.85 423.56,325.95 415.94,317.82 		"/>
		<g>
			<path class="st3" d="M454.83,327.87c1.09-0.77,2.25-1.51,3.49-2.21"/>
			<path class="st3" d="M442.23,342.14c0,0,2.44-5.57,8.69-11.17"/>
			<path class="st3" d="M450.79,320.91c1.67-0.26,3.39-0.38,5.17-0.33"/>
			<path class="st3" d="M431.64,330.37c0,0,5.2-5,13.03-7.87"/>
		</g>
		<path class="st3" d="M529.73,412.76c0,0-4.32-5.89-10.21-6.28"/>
		<path class="st3" d="M531.69,399.82c0,0,4.71,1.17,10.59,8.63c5.89,7.45,7.45,18.44,7.45,18.44"/>
		<path class="st3" d="M542.92,398.24c0,0,8.77,7.06,10.34,13.73c1.57,6.68,3.53,15.7,3.53,15.7"/>
		<path class="st3" d="M555.62,409.24c0,0-1.57-7.06-5.49-12.55"/>
	</g>
	<g>
		<polygon class="st2" points="674.5,424.91 566.22,424.91 596.03,326.04 704.32,326.04 		"/>
		<path class="st1" d="M674.5,424.91l25.26-83.78c-31.97,3.96-50.79,30.29-80.37,59.18c-18.61,18.18-31.54,23.41-39.12,24.59H674.5z
			"/>
		<ellipse class="st2" cx="639.58" cy="370.76" rx="8.56" ry="8.24"/>
		<rect x="473.23" y="424.51" class="st2" width="202.45" height="6.28"/>
		<rect x="572.11" y="424.51" class="st1" width="103.58" height="6.28"/>
	</g>
	<g>
		<g>
			<path class="st2" d="M209.5,407.63h-81.15c-7.19,0-13.02,5.82-13.02,13.02v1.43c0,7.19,5.82,13.02,13.02,13.02h81.15
				c0,0-4.33-6.52-4.33-13.91C205.17,413.79,209.5,407.63,209.5,407.63z"/>
			<path class="st2" d="M170.97,407.63H89.82c-7.19,0-13.02,5.82-13.02,13.02v1.43c0,7.19,5.82,13.02,13.02,13.02h81.15
				c0,0-4.33-6.52-4.33-13.91C166.64,413.79,170.97,407.63,170.97,407.63z"/>
			<path class="st2" d="M76.81,420.64v1.43c0,5.22,3.08,9.72,7.53,11.8l1.79,0.07v-24.31l-1.05-1.1
				C80.24,410.43,76.81,415.13,76.81,420.64z"/>
			<path class="st7" d="M209.5,407.63H89.82c-7.19,0-13.02,5.82-13.02,13.02v1.43c0,7.19,5.82,13.02,13.02,13.02H209.5"/>
			<g>
				<line class="st3" x1="86.53" y1="413.68" x2="126.23" y2="413.68"/>
				<line class="st3" x1="131.89" y1="417.33" x2="137.98" y2="417.33"/>
				<line class="st3" x1="94.23" y1="417.33" x2="126.63" y2="417.33"/>
				<line class="st3" x1="86.53" y1="425.43" x2="106.78" y2="425.43"/>
				<line class="st3" x1="147.29" y1="429.88" x2="151.75" y2="429.88"/>
				<line class="st3" x1="118.93" y1="429.88" x2="143.64" y2="429.88"/>
				<line class="st3" x1="94.23" y1="429.88" x2="111.64" y2="429.88"/>
			</g>
		</g>
		<g>
			<path class="st2" d="M129.15,407.63H15.48c-7.19,0-13.02,5.82-13.02,13.02v1.43c0,7.19,5.82,13.02,13.02,13.02h113.68
				c0,0-4.33-6.52-4.33-13.91C124.82,413.79,129.15,407.63,129.15,407.63z"/>
			<g>
				<line class="st3" x1="60.02" y1="411.95" x2="60.02" y2="431.6"/>
				<line class="st3" x1="60.64" y1="415.02" x2="93.19" y2="415.02"/>
				<line class="st3" x1="60.64" y1="419.93" x2="105.47" y2="419.93"/>
				<line class="st3" x1="74.46" y1="425.46" x2="86.12" y2="425.46"/>
				<line class="st3" x1="100.87" y1="429.14" x2="65.86" y2="429.14"/>
			</g>
			<path class="st1" d="M54.36,422.07v-1.43c0-7.19,5.82-13.02,13.02-13.02h-51.9c-7.19,0-13.02,5.82-13.02,13.02v1.43
				c0,7.19,5.82,13.02,13.02,13.02h51.9C60.2,435.09,54.36,429.26,54.36,422.07z"/>
			<path class="st7" d="M123.18,407.63H15.49c-7.19,0-13.02,5.82-13.02,13.02v1.43c0,7.19,5.82,13.02,13.02,13.02h107.69"/>
			<path class="st7" d="M131.57,407.63H67.69c-7.19,0-13.02,5.82-13.02,13.02v1.43c0,7.19,5.82,13.02,13.02,13.02h63.88"/>
		</g>
		<g>
			<path class="st2" d="M196.59,380.59h-81.15c-7.19,0-13.02,5.82-13.02,13.02v1.43c0,7.19,5.82,13.02,13.02,13.02h81.15
				c0,0-4.33-6.52-4.33-13.91C192.26,386.75,196.59,380.59,196.59,380.59z"/>
			<path class="st2" d="M158.06,380.59H76.92c-7.19,0-13.02,5.82-13.02,13.02v1.43c0,7.19,5.82,13.02,13.02,13.02h81.15
				c0,0-4.33-6.52-4.33-13.91C153.73,386.75,158.06,380.59,158.06,380.59z"/>
			<path class="st2" d="M63.91,393.61v1.43c0,5.22,3.08,9.72,7.53,11.8l1.79,0.07v-24.31l-1.05-1.1
				C67.33,383.4,63.91,388.1,63.91,393.61z"/>
			<path class="st7" d="M196.59,380.59H76.92c-7.19,0-13.02,5.82-13.02,13.02v1.43c0,7.19,5.82,13.02,13.02,13.02h119.67"/>
			<g>
				<line class="st3" x1="73.62" y1="386.65" x2="113.32" y2="386.65"/>
				<line class="st3" x1="119" y1="390.29" x2="125.07" y2="390.29"/>
				<line class="st3" x1="81.32" y1="390.29" x2="113.73" y2="390.29"/>
				<line class="st3" x1="73.62" y1="398.39" x2="93.88" y2="398.39"/>
				<line class="st3" x1="134.38" y1="402.86" x2="138.84" y2="402.86"/>
				<line class="st3" x1="106.03" y1="402.86" x2="130.74" y2="402.86"/>
				<line class="st3" x1="81.32" y1="402.86" x2="98.75" y2="402.86"/>
			</g>
		</g>
	</g>
	<g>
		<g>
			<path class="st6" d="M517.26,307.74h-27.74c-1.17,0-2.12-0.95-2.12-2.12v-8.06c0-1.17,0.95-2.12,2.12-2.12h37.18
				c1.17,0,2.12,0.95,2.12,2.12v3.16"/>
			<path class="st6" d="M517,320.86v-17.25c0-1.53,1.23-2.76,2.76-2.76h36.82c1.53,0,2.76,1.23,2.76,2.76v20.66"/>
			<path class="st6" d="M559.33,341.27v21.51c0,1.53-1.23,2.76-2.76,2.76h-36.82c-1.53,0-2.76-1.23-2.76-2.76v-37.78"/>
			<line class="st6" x1="519.6" y1="310.92" x2="556.71" y2="310.92"/>
			<line class="st6" x1="537.33" y1="322.12" x2="556.71" y2="322.12"/>
			<line class="st6" x1="519.6" y1="322.12" x2="534.31" y2="322.12"/>
			<line class="st6" x1="519.6" y1="333.31" x2="556.71" y2="333.31"/>
			<line class="st6" x1="550.05" y1="344.49" x2="556.71" y2="344.49"/>
			<line class="st6" x1="519.6" y1="344.49" x2="546.71" y2="344.49"/>
			<line class="st6" x1="519.6" y1="355.68" x2="556.71" y2="355.68"/>
			<line class="st6" x1="494.87" y1="301.31" x2="515.1" y2="301.31"/>
		</g>
		<g>
			<g>
				<g>
					<path class="st6" d="M229.48,88.62h-34.26c-1.44,0-2.62-1.17-2.62-2.62v-9.96c0-1.44,1.17-2.62,2.62-2.62h45.89
						c1.44,0,2.62,1.17,2.62,2.62v3.91"/>
					<path class="st6" d="M229.16,104.81V83.52c0-1.89,1.53-3.41,3.41-3.41h45.46c1.89,0,3.41,1.53,3.41,3.41v25.49"/>
					<path class="st6" d="M281.44,130.01v26.56c0,1.89-1.53,3.41-3.41,3.41h-45.46c-1.89,0-3.41-1.53-3.41-3.41v-46.64"/>
					<line class="st6" x1="232.39" y1="92.56" x2="278.18" y2="92.56"/>
					<line class="st6" x1="254.27" y1="106.36" x2="278.18" y2="106.36"/>
					<line class="st6" x1="232.39" y1="106.36" x2="250.53" y2="106.36"/>
					<line class="st6" x1="232.39" y1="120.17" x2="278.18" y2="120.17"/>
					<line class="st6" x1="269.98" y1="133.98" x2="278.18" y2="133.98"/>
					<line class="st6" x1="232.39" y1="133.98" x2="265.85" y2="133.98"/>
					<line class="st6" x1="232.39" y1="147.8" x2="278.18" y2="147.8"/>
					<line class="st6" x1="201.86" y1="80.68" x2="226.81" y2="80.68"/>
				</g>
				<g>
					<g>
						<path class="st9" d="M288.24,131.38c-1.91,0-3.8-0.72-5.26-2.13l-4.87-4.84c-0.59-0.58-0.69-1.48-0.26-2.18
							c0.28-0.44,0.74-0.74,1.27-0.81s1.05,0.1,1.43,0.46l0.96,0.9l-4.9-10.09c-0.25-0.52-0.27-1.1-0.06-1.63
							c0.2-0.53,0.6-0.95,1.12-1.17c1.04-0.44,2.22,0,2.71,1.01l1.85,3.58c0.37-0.43,0.81-0.68,1.31-0.75
							c0.79-0.12,1.52,0.27,1.94,0.56c0.38-0.47,0.85-0.75,1.38-0.83c0.64-0.09,1.25,0.16,1.64,0.39c0.26-0.59,0.77-0.9,1.44-0.86
							c0.65,0.04,1.26,0.43,1.59,1.05l3.47,6.37c1.7,3.34,0.73,7.35-2.3,9.55C291.35,130.91,289.79,131.38,288.24,131.38z
							 M279.35,122.18c-0.04,0-0.09,0-0.12,0.01c-0.3,0.04-0.54,0.2-0.7,0.44c-0.25,0.39-0.19,0.89,0.14,1.21l4.87,4.84
							c2.37,2.3,6.02,2.55,8.69,0.62c2.71-1.96,3.58-5.57,2.06-8.55l-3.46-6.36c-0.2-0.37-0.57-0.62-0.95-0.63
							c-0.32-0.01-0.67,0.06-0.78,0.78l-0.11,0.72l-0.54-0.49c-0.01,0-0.74-0.65-1.49-0.54c-0.41,0.06-0.77,0.33-1.06,0.81
							l-0.26,0.41l-0.35-0.33c-0.01-0.01-0.81-0.75-1.63-0.63c-0.44,0.06-0.83,0.38-1.15,0.95l-0.37,0.65l-2.47-4.85
							c-0.31-0.63-1.05-0.91-1.69-0.63c-0.32,0.14-0.57,0.41-0.7,0.73c-0.12,0.33-0.11,0.69,0.04,1.01l6.66,13.83l-3.97-3.73
							C279.84,122.27,279.59,122.18,279.35,122.18z"/>
					</g>
					<g>
						<path class="st9" d="M283.98,119.89c-0.15,0-0.3-0.09-0.36-0.23l-1.81-4.27c-0.09-0.2,0.01-0.43,0.21-0.52
							c0.2-0.09,0.43,0.01,0.52,0.21l1.81,4.27c0.09,0.2-0.01,0.43-0.21,0.52C284.08,119.89,284.03,119.89,283.98,119.89z"/>
					</g>
					<g>
						<path class="st9" d="M287.14,118.96c-0.15,0-0.3-0.09-0.36-0.25l-1.58-3.74c-0.09-0.2,0.01-0.43,0.21-0.52
							c0.2-0.09,0.43,0.01,0.52,0.21l1.58,3.74c0.09,0.2-0.01,0.43-0.21,0.52C287.24,118.95,287.19,118.96,287.14,118.96z"/>
					</g>
					<g>
						<path class="st9" d="M290.24,118.14c-0.15,0-0.3-0.09-0.36-0.22l-1.52-3.27c-0.09-0.2,0-0.43,0.2-0.52
							c0.2-0.09,0.43,0,0.52,0.19l1.52,3.27c0.09,0.2,0,0.43-0.2,0.52C290.35,118.12,290.29,118.14,290.24,118.14z"/>
					</g>
				</g>
			</g>
			
				<rect x="255.24" y="65.77" transform="matrix(0.7071 -0.7071 0.7071 0.7071 27.0028 202.7575)" class="st10" width="6.02" height="6.02"/>
			<path class="st6" d="M221.53,103.45c0-1.74-1.41-3.15-3.15-3.15s-3.15,1.41-3.15,3.15c0,1.74,1.41,3.15,3.15,3.15
				S221.53,105.19,221.53,103.45z"/>
		</g>
		<g>
			
				<rect x="642.08" y="4.01" transform="matrix(0.7071 -0.7071 0.7071 0.7071 181.6503 463.8309)" class="st10" width="17.28" height="17.28"/>
			
				<rect x="220.82" y="339.55" transform="matrix(0.7071 -0.7071 0.7071 0.7071 -179.001 264.2317)" class="st10" width="17.28" height="17.28"/>
			
				<rect x="167.6" y="315.76" transform="matrix(0.7071 -0.7071 0.7071 0.7071 -177.767 219.6303)" class="st10" width="17.28" height="17.28"/>
			
				<rect x="623.3" y="24.77" transform="matrix(0.7071 -0.7071 0.7071 0.7071 163.0893 452.7093)" class="st10" width="9.43" height="9.43"/>
			<circle class="st6" cx="630.23" cy="299.21" r="4.94"/>
			<circle class="st6" cx="220.7" cy="256.44" r="4.94"/>
			<circle class="st6" cx="438.48" cy="22.51" r="4.94"/>
		</g>
	</g>
	<g>
		<rect x="463.64" y="67.22" class="st0" width="239.39" height="215.95"/>
		<g>
			<rect x="477.15" y="56.12" class="st2" width="241.29" height="216.87"/>
			<rect x="540.71" y="56.12" class="st1" width="177.73" height="29.43"/>
			<rect x="477.15" y="56.12" class="st2" width="241.29" height="15.3"/>
			<g>
				<rect x="487.75" y="106.73" class="st1" width="147.13" height="94.17"/>
				<rect x="487.75" y="190.41" class="st2" width="147.13" height="10.49"/>
				<rect x="487.75" y="194.13" class="st2" width="147.13" height="3.06"/>
				<g>
					<ellipse class="st11" cx="558.74" cy="153.35" rx="21.67" ry="21.67"/>
					<polygon class="st12" points="571.32,153.82 552.46,142.94 552.46,164.71 					"/>
				</g>
			</g>
			<g>
				<rect x="648.08" y="106.73" class="st1" width="58.1" height="37.18"/>
				<rect x="648.08" y="139.78" class="st2" width="58.1" height="4.15"/>
				<rect x="648.08" y="141.24" class="st2" width="58.1" height="1.21"/>
				<g>
					<circle class="st11" cx="676.12" cy="125.15" r="8.55"/>
					<polygon class="st12" points="681.08,125.33 673.64,121.04 673.64,129.63 					"/>
				</g>
			</g>
			<g>
				<rect x="648.08" y="147.59" class="st1" width="58.1" height="37.18"/>
				<rect x="648.08" y="180.64" class="st2" width="58.1" height="4.15"/>
				<rect x="648.08" y="182.11" class="st2" width="58.1" height="1.21"/>
				<g>
					<path class="st11" d="M684.68,166c0-4.73-3.83-8.55-8.55-8.55s-8.55,3.83-8.55,8.55c0,4.73,3.83,8.55,8.55,8.55
						C680.85,174.55,684.68,170.73,684.68,166z"/>
					<polygon class="st12" points="681.08,166.19 673.64,161.89 673.64,170.48 					"/>
				</g>
			</g>
			<g>
				<rect x="648.08" y="188.45" class="st1" width="58.1" height="37.18"/>
				<rect x="648.08" y="221.5" class="st2" width="58.1" height="4.15"/>
				<rect x="648.08" y="222.96" class="st2" width="58.1" height="1.21"/>
				<g>
					<path class="st11" d="M684.68,206.86c0-4.73-3.83-8.55-8.55-8.55s-8.55,3.83-8.55,8.55c0,4.73,3.83,8.55,8.55,8.55
						C680.85,215.41,684.68,211.59,684.68,206.86z"/>
					<polygon class="st12" points="681.08,207.05 673.64,202.75 673.64,211.34 					"/>
				</g>
			</g>
			<g>
				<rect x="648.08" y="229.31" class="st1" width="58.1" height="37.18"/>
				<rect x="648.08" y="262.35" class="st2" width="58.1" height="4.15"/>
				<rect x="648.08" y="263.82" class="st2" width="58.1" height="1.21"/>
				<g>
					<path class="st11" d="M684.68,247.72c0-4.73-3.83-8.55-8.55-8.55s-8.55,3.83-8.55,8.55c0,4.73,3.83,8.55,8.55,8.55
						C680.85,256.27,684.68,252.44,684.68,247.72z"/>
					<polygon class="st12" points="681.08,247.9 673.64,243.61 673.64,252.2 					"/>
				</g>
			</g>
			<line class="st3" x1="488.89" y1="210.83" x2="601.56" y2="210.83"/>
			<g>
				<line class="st3" x1="488.89" y1="237.46" x2="555.83" y2="237.46"/>
				<line class="st3" x1="488.89" y1="247.98" x2="555.83" y2="247.98"/>
				<line class="st3" x1="488.89" y1="258.5" x2="555.83" y2="258.5"/>
			</g>
			<g>
				<line class="st3" x1="568.68" y1="237.46" x2="635.61" y2="237.46"/>
				<line class="st3" x1="568.68" y1="247.98" x2="635.61" y2="247.98"/>
				<line class="st3" x1="568.68" y1="258.5" x2="635.61" y2="258.5"/>
			</g>
			<line class="st3" x1="488.89" y1="219.51" x2="631.28" y2="219.51"/>
			<g>
				<rect x="709.66" y="106.8" class="st13" width="5.81" height="161.07"/>
				<rect x="709.66" y="145.88" class="st4" width="5.81" height="20.6"/>
			</g>
		</g>
		<line class="st3" x1="656.14" y1="273.3" x2="656.14" y2="326.36"/>
	</g>
	<g>
		<path class="st1" d="M572.11,424.51l0.41,0.39h0.93C572.55,424.72,572.11,424.51,572.11,424.51z"/>
	</g>
</g>
</svg>
